<mxfile host="app.diagrams.net" agent="Mozilla/5.0 (Macintosh; Intel Mac OS X 10_15_7) AppleWebKit/537.36 (KHTML, like Gecko) Chrome/135.0.0.0 Safari/537.36" version="27.0.5">
  <diagram name="第 1 页" id="w07IRvJ9YE01rltmzm0-">
    <mxGraphModel dx="2893" dy="2295" grid="1" gridSize="10" guides="1" tooltips="1" connect="1" arrows="1" fold="1" page="1" pageScale="1" pageWidth="827" pageHeight="1169" math="0" shadow="0">
      <root>
        <mxCell id="0" />
        <mxCell id="1" parent="0" />
        <UserObject label="" plantUmlData="{&#xa;  &quot;data&quot;: &quot;@startuml\n\nautonumber\n\nparticipant \&quot;MQ\\n (Rocket)\&quot; as mq #yellow\nparticipant \&quot;job\\n (调度器)\&quot; as job #yellow\nparticipant \&quot;mro-task \\n (执行器)\&quot; as task #orange\nparticipant \&quot;mro-api\&quot; as api #orange\nparticipant \&quot;mro-transfer\&quot; as transfer #orange\nparticipant \&quot;platform \\n (京东)\&quot; as platform  #yellow\nparticipant \&quot;SRM\\n （SRM系统）\&quot; as mall #yellow\n\n\n\ntitle 调度轮训拉取数据\n\n\n\njob-&gt;&gt;task:任务调度\ntask-&gt;task:执行任务\ntask-&gt;task:计算执行时间范围参数\nnote left: redis获取\n\ntask-&gt;task:获取账号信息\ntask-&gt;task:从redis获取该账号的token\nalt#Gold #LightBlue 有值\n\nelse 没值（已经过期，重新获取或者刷新）\ntask-&gt;api:根据三方商城账号调用token刷新接口\napi-&gt;platform:根据三方商城账号调用token刷新接口\ntask-&gt;task: 持久化到redis，过期时间=token有效期*0.8\nend\n\ntask-&gt;api:根据三方商城账号上渠道信息加载订单api并请求\napi-&gt;platform:请求平台获取订单接口\nplatform-&gt;api:返回订单列表数据\napi-&gt;api:记录请求日志\napi-&gt;task:返回订单列表数据\ntask-&gt;task:判断totalCount\nalt#Gold #LightBlue totalCount相等\n task--&gt; task:返回订单列表数据\n task-&gt; task:是否进行消息体切割\n task-&gt; task:消息组装\n task-&gt;mq:发送消息\n mq--&gt;task:发送成功\n task-&gt;task:更新redis时间位\n task--&gt;job:任务执行结果\nnote right:期间判断是否是临时任务\\n 是，则额外进行任务逻辑删除\\n 否，则仅进行结果回写\nelse #7ED6FB totalCount不等\ntask-&gt;task :返回失败，待下次执行\ntask -&gt; job : 调度日志执行失败\nend\n\n==消息消费==\ntransfer-&gt; mq : 消费消息\ntransfer-&gt;transfer: 转换处理\ngroup #Gold  分布式锁\ntransfer-&gt;transfer: redis锁\ntransfer-&gt;transfer: 幂等过滤\ntransfer-&gt;transfer:订单统一模型转换\ntransfer-&gt;transfer: 统一模型反序列化\ntransfer-&gt;mall:推送订单数据\ntransfer-&gt;transfer:更新下发结果，更新幂等key\ntransfer-&gt;mq:ack\ntransfer-&gt;transfer:unlock\nend\n\nnote  right:推送结果只能只能返回指定异常，才会重试\n@enduml&quot;,&#xa;  &quot;format&quot;: &quot;svg&quot;&#xa;}" id="SkYxiRf6rhto-i4bu6dd-1">
          <mxCell style="shape=image;noLabel=1;verticalAlign=top;aspect=fixed;imageAspect=0;image=data:image/svg+xml,PHN2ZyB4bWxucz0iaHR0cDovL3d3dy53My5vcmcvMjAwMC9zdmciIHhtbG5zOnhsaW5rPSJodHRwOi8vd3d3LnczLm9yZy8xOTk5L3hsaW5rIiBjb250ZW50U3R5bGVUeXBlPSJ0ZXh0L2NzcyIgZGF0YS1kaWFncmFtLXR5cGU9IlNFUVVFTkNFIiBoZWlnaHQ9IjE1MTZweCIgcHJlc2VydmVBc3BlY3RSYXRpbz0ibm9uZSIgc3R5bGU9IndpZHRoOjEzNThweDtoZWlnaHQ6MTUxNnB4O2JhY2tncm91bmQ6I0ZGRkZGRjsiIHZlcnNpb249IjEuMSIgdmlld0JveD0iMCAwIDEzNTggMTUxNiIgd2lkdGg9IjEzNThweCIgem9vbUFuZFBhbj0ibWFnbmlmeSI+PHRpdGxlPiYjMzU4NDM7JiMyNDIzMDsmIzM2NzE4OyYjMzU3NTc7JiMyNTI4OTsmIzIxNDYyOyYjMjU5Njg7JiMyNTQ1NDs8L3RpdGxlPjxkZWZzLz48Zz48dGV4dCBmaWxsPSIjMDAwMDAwIiBmb250LWZhbWlseT0ic2Fucy1zZXJpZiIgZm9udC1zaXplPSIxNCIgZm9udC13ZWlnaHQ9ImJvbGQiIGxlbmd0aEFkanVzdD0ic3BhY2luZyIgdGV4dExlbmd0aD0iMTEyIiB4PSI2MTkuMjUiIHk9IjI4LjIzNDQiPiYjMzU4NDM7JiMyNDIzMDsmIzM2NzE4OyYjMzU3NTc7JiMyNTI4OTsmIzIxNDYyOyYjMjU5Njg7JiMyNTQ1NDs8L3RleHQ+PHJlY3QgZmlsbD0iI0FERDhFNiIgaGVpZ2h0PSIxMjYuNDI5NyIgc3R5bGU9InN0cm9rZTojMDAwMDAwO3N0cm9rZS13aWR0aDoxLjU7IiB3aWR0aD0iNzEzLjUiIHg9IjI0MiIgeT0iMjk0LjUyMzQiLz48cmVjdCBmaWxsPSIjQUREOEU2IiBoZWlnaHQ9IjExMC41MTU2IiBzdHlsZT0ic3Ryb2tlOm5vbmU7c3Ryb2tlLXdpZHRoOjE7IiB3aWR0aD0iNzEzLjUiIHg9IjI0MiIgeT0iMzEwLjQzNzUiLz48cmVjdCBmaWxsPSIjQUREOEU2IiBoZWlnaHQ9IjM3OS43NDIyIiBzdHlsZT0ic3Ryb2tlOiMwMDAwMDA7c3Ryb2tlLXdpZHRoOjEuNTsiIHdpZHRoPSI0OTciIHg9IjEwIiB5PSI2MjguNDM3NSIvPjxyZWN0IGZpbGw9IiM3RUQ2RkIiIGhlaWdodD0iODIuNjAxNiIgc3R5bGU9InN0cm9rZTpub25lO3N0cm9rZS13aWR0aDoxOyIgd2lkdGg9IjQ5NyIgeD0iMTAiIHk9IjkyNS41NzgxIi8+PHJlY3QgZmlsbD0iI0ZGRDcwMCIgaGVpZ2h0PSIzMTcuMjI2NiIgc3R5bGU9InN0cm9rZTojMDAwMDAwO3N0cm9rZS13aWR0aDoxLjU7IiB3aWR0aD0iMTA1My41IiB4PSIxMCIgeT0iMTEzMi45MjE5Ii8+PGc+PHRpdGxlPk1RPC90aXRsZT48cmVjdCBmaWxsPSIjMDAwMDAwIiBmaWxsLW9wYWNpdHk9IjAuMDAwMDAiIGhlaWdodD0iMTM4MS4xOTUzIiB3aWR0aD0iOCIgeD0iNTQuNSIgeT0iODUuOTUzMSIvPjxsaW5lIHN0eWxlPSJzdHJva2U6IzE4MTgxODtzdHJva2Utd2lkdGg6MC41O3N0cm9rZS1kYXNoYXJyYXk6NS4wLDUuMDsiIHgxPSI1OCIgeDI9IjU4IiB5MT0iODUuOTUzMSIgeTI9IjE0NjcuMTQ4NCIvPjwvZz48Zz48dGl0bGU+am9iPC90aXRsZT48cmVjdCBmaWxsPSIjMDAwMDAwIiBmaWxsLW9wYWNpdHk9IjAuMDAwMDAiIGhlaWdodD0iMTM4MS4xOTUzIiB3aWR0aD0iOCIgeD0iMTQxLjUiIHk9Ijg1Ljk1MzEiLz48bGluZSBzdHlsZT0ic3Ryb2tlOiMxODE4MTg7c3Ryb2tlLXdpZHRoOjAuNTtzdHJva2UtZGFzaGFycmF5OjUuMCw1LjA7IiB4MT0iMTQ1IiB4Mj0iMTQ1IiB5MT0iODUuOTUzMSIgeTI9IjE0NjcuMTQ4NCIvPjwvZz48Zz48dGl0bGU+bXJvLXRhc2sgPC90aXRsZT48cmVjdCBmaWxsPSIjMDAwMDAwIiBmaWxsLW9wYWNpdHk9IjAuMDAwMDAiIGhlaWdodD0iMTM4MS4xOTUzIiB3aWR0aD0iOCIgeD0iMjg2LjUiIHk9Ijg1Ljk1MzEiLz48bGluZSBzdHlsZT0ic3Ryb2tlOiMxODE4MTg7c3Ryb2tlLXdpZHRoOjAuNTtzdHJva2UtZGFzaGFycmF5OjUuMCw1LjA7IiB4MT0iMjkwIiB4Mj0iMjkwIiB5MT0iODUuOTUzMSIgeTI9IjE0NjcuMTQ4NCIvPjwvZz48Zz48dGl0bGU+bXJvLWFwaTwvdGl0bGU+PHJlY3QgZmlsbD0iIzAwMDAwMCIgZmlsbC1vcGFjaXR5PSIwLjAwMDAwIiBoZWlnaHQ9IjEzODEuMTk1MyIgd2lkdGg9IjgiIHg9IjYwMC41IiB5PSI4NS45NTMxIi8+PGxpbmUgc3R5bGU9InN0cm9rZTojMTgxODE4O3N0cm9rZS13aWR0aDowLjU7c3Ryb2tlLWRhc2hhcnJheTo1LjAsNS4wOyIgeDE9IjYwNCIgeDI9IjYwNCIgeTE9Ijg1Ljk1MzEiIHkyPSIxNDY3LjE0ODQiLz48L2c+PGc+PHRpdGxlPm1yby10cmFuc2ZlcjwvdGl0bGU+PHJlY3QgZmlsbD0iIzAwMDAwMCIgZmlsbC1vcGFjaXR5PSIwLjAwMDAwIiBoZWlnaHQ9IjEzODEuMTk1MyIgd2lkdGg9IjgiIHg9IjcwOS41IiB5PSI4NS45NTMxIi8+PGxpbmUgc3R5bGU9InN0cm9rZTojMTgxODE4O3N0cm9rZS13aWR0aDowLjU7c3Ryb2tlLWRhc2hhcnJheTo1LjAsNS4wOyIgeDE9IjcxMy41IiB4Mj0iNzEzLjUiIHkxPSI4NS45NTMxIiB5Mj0iMTQ2Ny4xNDg0Ii8+PC9nPjxnPjx0aXRsZT5wbGF0Zm9ybSA8L3RpdGxlPjxyZWN0IGZpbGw9IiMwMDAwMDAiIGZpbGwtb3BhY2l0eT0iMC4wMDAwMCIgaGVpZ2h0PSIxMzgxLjE5NTMiIHdpZHRoPSI4IiB4PSI5MDMiIHk9Ijg1Ljk1MzEiLz48bGluZSBzdHlsZT0ic3Ryb2tlOiMxODE4MTg7c3Ryb2tlLXdpZHRoOjAuNTtzdHJva2UtZGFzaGFycmF5OjUuMCw1LjA7IiB4MT0iOTA2LjUiIHgyPSI5MDYuNSIgeTE9Ijg1Ljk1MzEiIHkyPSIxNDY3LjE0ODQiLz48L2c+PGc+PHRpdGxlPlNSTTwvdGl0bGU+PHJlY3QgZmlsbD0iIzAwMDAwMCIgZmlsbC1vcGFjaXR5PSIwLjAwMDAwIiBoZWlnaHQ9IjEzODEuMTk1MyIgd2lkdGg9IjgiIHg9IjEwMDAuNSIgeT0iODUuOTUzMSIvPjxsaW5lIHN0eWxlPSJzdHJva2U6IzE4MTgxODtzdHJva2Utd2lkdGg6MC41O3N0cm9rZS1kYXNoYXJyYXk6NS4wLDUuMDsiIHgxPSIxMDA0LjUiIHgyPSIxMDA0LjUiIHkxPSI4NS45NTMxIiB5Mj0iMTQ2Ny4xNDg0Ii8+PC9nPjxnIGNsYXNzPSJwYXJ0aWNpcGFudCBwYXJ0aWNpcGFudC1oZWFkIiBkYXRhLXBhcnRpY2lwYW50PSJtcSI+PHJlY3QgZmlsbD0iI0ZGRkYwMCIgaGVpZ2h0PSI0My45Njg4IiByeD0iMi41IiByeT0iMi41IiBzdHlsZT0ic3Ryb2tlOiMxODE4MTg7c3Ryb2tlLXdpZHRoOjAuNTsiIHdpZHRoPSI3NyIgeD0iMjAiIHk9IjQwLjk4NDQiLz48dGV4dCBmaWxsPSIjMDAwMDAwIiBmb250LWZhbWlseT0ic2Fucy1zZXJpZiIgZm9udC1zaXplPSIxNCIgbGVuZ3RoQWRqdXN0PSJzcGFjaW5nIiB0ZXh0TGVuZ3RoPSIxNCIgeD0iNTEuNSIgeT0iNjEuMjE4OCI+TVE8L3RleHQ+PHRleHQgZmlsbD0iIzAwMDAwMCIgZm9udC1mYW1pbHk9InNhbnMtc2VyaWYiIGZvbnQtc2l6ZT0iMTQiIGxlbmd0aEFkanVzdD0ic3BhY2luZyIgdGV4dExlbmd0aD0iNTYiIHg9IjM0IiB5PSI3Ni4yMDMxIj4oUm9ja2V0KTwvdGV4dD48L2c+PGcgY2xhc3M9InBhcnRpY2lwYW50IHBhcnRpY2lwYW50LXRhaWwiIGRhdGEtcGFydGljaXBhbnQ9Im1xIj48cmVjdCBmaWxsPSIjRkZGRjAwIiBoZWlnaHQ9IjQzLjk2ODgiIHJ4PSIyLjUiIHJ5PSIyLjUiIHN0eWxlPSJzdHJva2U6IzE4MTgxODtzdHJva2Utd2lkdGg6MC41OyIgd2lkdGg9Ijc3IiB4PSIyMCIgeT0iMTQ2Ni4xNDg0Ii8+PHRleHQgZmlsbD0iIzAwMDAwMCIgZm9udC1mYW1pbHk9InNhbnMtc2VyaWYiIGZvbnQtc2l6ZT0iMTQiIGxlbmd0aEFkanVzdD0ic3BhY2luZyIgdGV4dExlbmd0aD0iMTQiIHg9IjUxLjUiIHk9IjE0ODYuMzgyOCI+TVE8L3RleHQ+PHRleHQgZmlsbD0iIzAwMDAwMCIgZm9udC1mYW1pbHk9InNhbnMtc2VyaWYiIGZvbnQtc2l6ZT0iMTQiIGxlbmd0aEFkanVzdD0ic3BhY2luZyIgdGV4dExlbmd0aD0iNTYiIHg9IjM0IiB5PSIxNTAxLjM2NzIiPihSb2NrZXQpPC90ZXh0PjwvZz48ZyBjbGFzcz0icGFydGljaXBhbnQgcGFydGljaXBhbnQtaGVhZCIgZGF0YS1wYXJ0aWNpcGFudD0iam9iIj48cmVjdCBmaWxsPSIjRkZGRjAwIiBoZWlnaHQ9IjQzLjk2ODgiIHJ4PSIyLjUiIHJ5PSIyLjUiIHN0eWxlPSJzdHJva2U6IzE4MTgxODtzdHJva2Utd2lkdGg6MC41OyIgd2lkdGg9Ijc3IiB4PSIxMDciIHk9IjQwLjk4NDQiLz48dGV4dCBmaWxsPSIjMDAwMDAwIiBmb250LWZhbWlseT0ic2Fucy1zZXJpZiIgZm9udC1zaXplPSIxNCIgbGVuZ3RoQWRqdXN0PSJzcGFjaW5nIiB0ZXh0TGVuZ3RoPSIyMSIgeD0iMTM1IiB5PSI2MS4yMTg4Ij5qb2I8L3RleHQ+PHRleHQgZmlsbD0iIzAwMDAwMCIgZm9udC1mYW1pbHk9InNhbnMtc2VyaWYiIGZvbnQtc2l6ZT0iMTQiIGxlbmd0aEFkanVzdD0ic3BhY2luZyIgdGV4dExlbmd0aD0iNTYiIHg9IjEyMSIgeT0iNzYuMjAzMSI+KCYjMzU4NDM7JiMyNDIzMDsmIzIyMTIwOyk8L3RleHQ+PC9nPjxnIGNsYXNzPSJwYXJ0aWNpcGFudCBwYXJ0aWNpcGFudC10YWlsIiBkYXRhLXBhcnRpY2lwYW50PSJqb2IiPjxyZWN0IGZpbGw9IiNGRkZGMDAiIGhlaWdodD0iNDMuOTY4OCIgcng9IjIuNSIgcnk9IjIuNSIgc3R5bGU9InN0cm9rZTojMTgxODE4O3N0cm9rZS13aWR0aDowLjU7IiB3aWR0aD0iNzciIHg9IjEwNyIgeT0iMTQ2Ni4xNDg0Ii8+PHRleHQgZmlsbD0iIzAwMDAwMCIgZm9udC1mYW1pbHk9InNhbnMtc2VyaWYiIGZvbnQtc2l6ZT0iMTQiIGxlbmd0aEFkanVzdD0ic3BhY2luZyIgdGV4dExlbmd0aD0iMjEiIHg9IjEzNSIgeT0iMTQ4Ni4zODI4Ij5qb2I8L3RleHQ+PHRleHQgZmlsbD0iIzAwMDAwMCIgZm9udC1mYW1pbHk9InNhbnMtc2VyaWYiIGZvbnQtc2l6ZT0iMTQiIGxlbmd0aEFkanVzdD0ic3BhY2luZyIgdGV4dExlbmd0aD0iNTYiIHg9IjEyMSIgeT0iMTUwMS4zNjcyIj4oJiMzNTg0MzsmIzI0MjMwOyYjMjIxMjA7KTwvdGV4dD48L2c+PGcgY2xhc3M9InBhcnRpY2lwYW50IHBhcnRpY2lwYW50LWhlYWQiIGRhdGEtcGFydGljaXBhbnQ9InRhc2siPjxyZWN0IGZpbGw9IiNGRkE1MDAiIGhlaWdodD0iNDMuOTY4OCIgcng9IjIuNSIgcnk9IjIuNSIgc3R5bGU9InN0cm9rZTojMTgxODE4O3N0cm9rZS13aWR0aDowLjU7IiB3aWR0aD0iNzciIHg9IjI1MiIgeT0iNDAuOTg0NCIvPjx0ZXh0IGZpbGw9IiMwMDAwMDAiIGZvbnQtZmFtaWx5PSJzYW5zLXNlcmlmIiBmb250LXNpemU9IjE0IiBsZW5ndGhBZGp1c3Q9InNwYWNpbmciIHRleHRMZW5ndGg9IjU2IiB4PSIyNTkiIHk9IjYxLjIxODgiPm1yby10YXNrPC90ZXh0Pjx0ZXh0IGZpbGw9IiMwMDAwMDAiIGZvbnQtZmFtaWx5PSJzYW5zLXNlcmlmIiBmb250LXNpemU9IjE0IiBsZW5ndGhBZGp1c3Q9InNwYWNpbmciIHRleHRMZW5ndGg9IjU2IiB4PSIyNjYiIHk9Ijc2LjIwMzEiPigmIzI1MTkxOyYjMzQ4OTI7JiMyMjEyMDspPC90ZXh0PjwvZz48ZyBjbGFzcz0icGFydGljaXBhbnQgcGFydGljaXBhbnQtdGFpbCIgZGF0YS1wYXJ0aWNpcGFudD0idGFzayI+PHJlY3QgZmlsbD0iI0ZGQTUwMCIgaGVpZ2h0PSI0My45Njg4IiByeD0iMi41IiByeT0iMi41IiBzdHlsZT0ic3Ryb2tlOiMxODE4MTg7c3Ryb2tlLXdpZHRoOjAuNTsiIHdpZHRoPSI3NyIgeD0iMjUyIiB5PSIxNDY2LjE0ODQiLz48dGV4dCBmaWxsPSIjMDAwMDAwIiBmb250LWZhbWlseT0ic2Fucy1zZXJpZiIgZm9udC1zaXplPSIxNCIgbGVuZ3RoQWRqdXN0PSJzcGFjaW5nIiB0ZXh0TGVuZ3RoPSI1NiIgeD0iMjU5IiB5PSIxNDg2LjM4MjgiPm1yby10YXNrPC90ZXh0Pjx0ZXh0IGZpbGw9IiMwMDAwMDAiIGZvbnQtZmFtaWx5PSJzYW5zLXNlcmlmIiBmb250LXNpemU9IjE0IiBsZW5ndGhBZGp1c3Q9InNwYWNpbmciIHRleHRMZW5ndGg9IjU2IiB4PSIyNjYiIHk9IjE1MDEuMzY3MiI+KCYjMjUxOTE7JiMzNDg5MjsmIzIyMTIwOyk8L3RleHQ+PC9nPjxnIGNsYXNzPSJwYXJ0aWNpcGFudCBwYXJ0aWNpcGFudC1oZWFkIiBkYXRhLXBhcnRpY2lwYW50PSJhcGkiPjxyZWN0IGZpbGw9IiNGRkE1MDAiIGhlaWdodD0iMjguOTg0NCIgcng9IjIuNSIgcnk9IjIuNSIgc3R5bGU9InN0cm9rZTojMTgxODE4O3N0cm9rZS13aWR0aDowLjU7IiB3aWR0aD0iNjMiIHg9IjU3MyIgeT0iNTUuOTY4OCIvPjx0ZXh0IGZpbGw9IiMwMDAwMDAiIGZvbnQtZmFtaWx5PSJzYW5zLXNlcmlmIiBmb250LXNpemU9IjE0IiBsZW5ndGhBZGp1c3Q9InNwYWNpbmciIHRleHRMZW5ndGg9IjQ5IiB4PSI1ODAiIHk9Ijc2LjIwMzEiPm1yby1hcGk8L3RleHQ+PC9nPjxnIGNsYXNzPSJwYXJ0aWNpcGFudCBwYXJ0aWNpcGFudC10YWlsIiBkYXRhLXBhcnRpY2lwYW50PSJhcGkiPjxyZWN0IGZpbGw9IiNGRkE1MDAiIGhlaWdodD0iMjguOTg0NCIgcng9IjIuNSIgcnk9IjIuNSIgc3R5bGU9InN0cm9rZTojMTgxODE4O3N0cm9rZS13aWR0aDowLjU7IiB3aWR0aD0iNjMiIHg9IjU3MyIgeT0iMTQ2Ni4xNDg0Ii8+PHRleHQgZmlsbD0iIzAwMDAwMCIgZm9udC1mYW1pbHk9InNhbnMtc2VyaWYiIGZvbnQtc2l6ZT0iMTQiIGxlbmd0aEFkanVzdD0ic3BhY2luZyIgdGV4dExlbmd0aD0iNDkiIHg9IjU4MCIgeT0iMTQ4Ni4zODI4Ij5tcm8tYXBpPC90ZXh0PjwvZz48ZyBjbGFzcz0icGFydGljaXBhbnQgcGFydGljaXBhbnQtaGVhZCIgZGF0YS1wYXJ0aWNpcGFudD0idHJhbnNmZXIiPjxyZWN0IGZpbGw9IiNGRkE1MDAiIGhlaWdodD0iMjguOTg0NCIgcng9IjIuNSIgcnk9IjIuNSIgc3R5bGU9InN0cm9rZTojMTgxODE4O3N0cm9rZS13aWR0aDowLjU7IiB3aWR0aD0iOTgiIHg9IjY2NC41IiB5PSI1NS45Njg4Ii8+PHRleHQgZmlsbD0iIzAwMDAwMCIgZm9udC1mYW1pbHk9InNhbnMtc2VyaWYiIGZvbnQtc2l6ZT0iMTQiIGxlbmd0aEFkanVzdD0ic3BhY2luZyIgdGV4dExlbmd0aD0iODQiIHg9IjY3MS41IiB5PSI3Ni4yMDMxIj5tcm8tdHJhbnNmZXI8L3RleHQ+PC9nPjxnIGNsYXNzPSJwYXJ0aWNpcGFudCBwYXJ0aWNpcGFudC10YWlsIiBkYXRhLXBhcnRpY2lwYW50PSJ0cmFuc2ZlciI+PHJlY3QgZmlsbD0iI0ZGQTUwMCIgaGVpZ2h0PSIyOC45ODQ0IiByeD0iMi41IiByeT0iMi41IiBzdHlsZT0ic3Ryb2tlOiMxODE4MTg7c3Ryb2tlLXdpZHRoOjAuNTsiIHdpZHRoPSI5OCIgeD0iNjY0LjUiIHk9IjE0NjYuMTQ4NCIvPjx0ZXh0IGZpbGw9IiMwMDAwMDAiIGZvbnQtZmFtaWx5PSJzYW5zLXNlcmlmIiBmb250LXNpemU9IjE0IiBsZW5ndGhBZGp1c3Q9InNwYWNpbmciIHRleHRMZW5ndGg9Ijg0IiB4PSI2NzEuNSIgeT0iMTQ4Ni4zODI4Ij5tcm8tdHJhbnNmZXI8L3RleHQ+PC9nPjxnIGNsYXNzPSJwYXJ0aWNpcGFudCBwYXJ0aWNpcGFudC1oZWFkIiBkYXRhLXBhcnRpY2lwYW50PSJwbGF0Zm9ybSI+PHJlY3QgZmlsbD0iI0ZGRkYwMCIgaGVpZ2h0PSI0My45Njg4IiByeD0iMi41IiByeT0iMi41IiBzdHlsZT0ic3Ryb2tlOiMxODE4MTg7c3Ryb2tlLXdpZHRoOjAuNTsiIHdpZHRoPSI3NyIgeD0iODY4LjUiIHk9IjQwLjk4NDQiLz48dGV4dCBmaWxsPSIjMDAwMDAwIiBmb250LWZhbWlseT0ic2Fucy1zZXJpZiIgZm9udC1zaXplPSIxNCIgbGVuZ3RoQWRqdXN0PSJzcGFjaW5nIiB0ZXh0TGVuZ3RoPSI1NiIgeD0iODc1LjUiIHk9IjYxLjIxODgiPnBsYXRmb3JtPC90ZXh0Pjx0ZXh0IGZpbGw9IiMwMDAwMDAiIGZvbnQtZmFtaWx5PSJzYW5zLXNlcmlmIiBmb250LXNpemU9IjE0IiBsZW5ndGhBZGp1c3Q9InNwYWNpbmciIHRleHRMZW5ndGg9IjQyIiB4PSI4ODkuNSIgeT0iNzYuMjAzMSI+KCYjMjAxNDA7JiMxOTk5NjspPC90ZXh0PjwvZz48ZyBjbGFzcz0icGFydGljaXBhbnQgcGFydGljaXBhbnQtdGFpbCIgZGF0YS1wYXJ0aWNpcGFudD0icGxhdGZvcm0iPjxyZWN0IGZpbGw9IiNGRkZGMDAiIGhlaWdodD0iNDMuOTY4OCIgcng9IjIuNSIgcnk9IjIuNSIgc3R5bGU9InN0cm9rZTojMTgxODE4O3N0cm9rZS13aWR0aDowLjU7IiB3aWR0aD0iNzciIHg9Ijg2OC41IiB5PSIxNDY2LjE0ODQiLz48dGV4dCBmaWxsPSIjMDAwMDAwIiBmb250LWZhbWlseT0ic2Fucy1zZXJpZiIgZm9udC1zaXplPSIxNCIgbGVuZ3RoQWRqdXN0PSJzcGFjaW5nIiB0ZXh0TGVuZ3RoPSI1NiIgeD0iODc1LjUiIHk9IjE0ODYuMzgyOCI+cGxhdGZvcm08L3RleHQ+PHRleHQgZmlsbD0iIzAwMDAwMCIgZm9udC1mYW1pbHk9InNhbnMtc2VyaWYiIGZvbnQtc2l6ZT0iMTQiIGxlbmd0aEFkanVzdD0ic3BhY2luZyIgdGV4dExlbmd0aD0iNDIiIHg9Ijg4OS41IiB5PSIxNTAxLjM2NzIiPigmIzIwMTQwOyYjMTk5OTY7KTwvdGV4dD48L2c+PGcgY2xhc3M9InBhcnRpY2lwYW50IHBhcnRpY2lwYW50LWhlYWQiIGRhdGEtcGFydGljaXBhbnQ9Im1hbGwiPjxyZWN0IGZpbGw9IiNGRkZGMDAiIGhlaWdodD0iNDMuOTY4OCIgcng9IjIuNSIgcnk9IjIuNSIgc3R5bGU9InN0cm9rZTojMTgxODE4O3N0cm9rZS13aWR0aDowLjU7IiB3aWR0aD0iOTgiIHg9Ijk1NS41IiB5PSI0MC45ODQ0Ii8+PHRleHQgZmlsbD0iIzAwMDAwMCIgZm9udC1mYW1pbHk9InNhbnMtc2VyaWYiIGZvbnQtc2l6ZT0iMTQiIGxlbmd0aEFkanVzdD0ic3BhY2luZyIgdGV4dExlbmd0aD0iMjEiIHg9Ijk5NCIgeT0iNjEuMjE4OCI+U1JNPC90ZXh0Pjx0ZXh0IGZpbGw9IiMwMDAwMDAiIGZvbnQtZmFtaWx5PSJzYW5zLXNlcmlmIiBmb250LXNpemU9IjE0IiBsZW5ndGhBZGp1c3Q9InNwYWNpbmciIHRleHRMZW5ndGg9Ijc3IiB4PSI5NjkuNSIgeT0iNzYuMjAzMSI+JiM2NTI4ODtTUk0mIzMxOTk1OyYjMzI0Nzk7JiM2NTI4OTs8L3RleHQ+PC9nPjxnIGNsYXNzPSJwYXJ0aWNpcGFudCBwYXJ0aWNpcGFudC10YWlsIiBkYXRhLXBhcnRpY2lwYW50PSJtYWxsIj48cmVjdCBmaWxsPSIjRkZGRjAwIiBoZWlnaHQ9IjQzLjk2ODgiIHJ4PSIyLjUiIHJ5PSIyLjUiIHN0eWxlPSJzdHJva2U6IzE4MTgxODtzdHJva2Utd2lkdGg6MC41OyIgd2lkdGg9Ijk4IiB4PSI5NTUuNSIgeT0iMTQ2Ni4xNDg0Ii8+PHRleHQgZmlsbD0iIzAwMDAwMCIgZm9udC1mYW1pbHk9InNhbnMtc2VyaWYiIGZvbnQtc2l6ZT0iMTQiIGxlbmd0aEFkanVzdD0ic3BhY2luZyIgdGV4dExlbmd0aD0iMjEiIHg9Ijk5NCIgeT0iMTQ4Ni4zODI4Ij5TUk08L3RleHQ+PHRleHQgZmlsbD0iIzAwMDAwMCIgZm9udC1mYW1pbHk9InNhbnMtc2VyaWYiIGZvbnQtc2l6ZT0iMTQiIGxlbmd0aEFkanVzdD0ic3BhY2luZyIgdGV4dExlbmd0aD0iNzciIHg9Ijk2OS41IiB5PSIxNTAxLjM2NzIiPiYjNjUyODg7U1JNJiMzMTk5NTsmIzMyNDc5OyYjNjUyODk7PC90ZXh0PjwvZz48ZyBjbGFzcz0ibWVzc2FnZSIgZGF0YS1wYXJ0aWNpcGFudC0xPSJqb2IiIGRhdGEtcGFydGljaXBhbnQtMj0idGFzayI+PGxpbmUgc3R5bGU9InN0cm9rZTojMTgxODE4O3N0cm9rZS13aWR0aDoxOyIgeDE9IjI4OC41IiB4Mj0iMjc4LjUiIHkxPSIxMTUuODY3MiIgeTI9IjExMS44NjcyIi8+PGxpbmUgc3R5bGU9InN0cm9rZTojMTgxODE4O3N0cm9rZS13aWR0aDoxOyIgeDE9IjI4OC41IiB4Mj0iMjc4LjUiIHkxPSIxMTUuODY3MiIgeTI9IjExOS44NjcyIi8+PGxpbmUgc3R5bGU9InN0cm9rZTojMTgxODE4O3N0cm9rZS13aWR0aDoxOyIgeDE9IjE0NS41IiB4Mj0iMjg5LjUiIHkxPSIxMTUuODY3MiIgeTI9IjExNS44NjcyIi8+PHRleHQgZmlsbD0iIzAwMDAwMCIgZm9udC1mYW1pbHk9InNhbnMtc2VyaWYiIGZvbnQtc2l6ZT0iMTMiIGZvbnQtd2VpZ2h0PSJib2xkIiBsZW5ndGhBZGp1c3Q9InNwYWNpbmciIHRleHRMZW5ndGg9IjYuNSIgeD0iMTUyLjUiIHk9IjExMi4yNDIyIj4xPC90ZXh0Pjx0ZXh0IGZpbGw9IiMwMDAwMDAiIGZvbnQtZmFtaWx5PSJzYW5zLXNlcmlmIiBmb250LXNpemU9IjEzIiBsZW5ndGhBZGp1c3Q9InNwYWNpbmciIHRleHRMZW5ndGg9IjUyIiB4PSIxNjMiIHk9IjExMi4yNDIyIj4mIzIwMjE5OyYjMjExNTM7JiMzNTg0MzsmIzI0MjMwOzwvdGV4dD48L2c+PGcgY2xhc3M9Im1lc3NhZ2UiIGRhdGEtcGFydGljaXBhbnQtMT0idGFzayIgZGF0YS1wYXJ0aWNpcGFudC0yPSJ0YXNrIj48bGluZSBzdHlsZT0ic3Ryb2tlOiMxODE4MTg7c3Ryb2tlLXdpZHRoOjE7IiB4MT0iMjkwLjUiIHgyPSIzMzIuNSIgeTE9IjE0My43ODEzIiB5Mj0iMTQzLjc4MTMiLz48bGluZSBzdHlsZT0ic3Ryb2tlOiMxODE4MTg7c3Ryb2tlLXdpZHRoOjE7IiB4MT0iMzMyLjUiIHgyPSIzMzIuNSIgeTE9IjE0My43ODEzIiB5Mj0iMTU2Ljc4MTMiLz48bGluZSBzdHlsZT0ic3Ryb2tlOiMxODE4MTg7c3Ryb2tlLXdpZHRoOjE7IiB4MT0iMjkxLjUiIHgyPSIzMzIuNSIgeTE9IjE1Ni43ODEzIiB5Mj0iMTU2Ljc4MTMiLz48cG9seWdvbiBmaWxsPSIjMTgxODE4IiBwb2ludHM9IjMwMS41LDE1Mi43ODEzLDI5MS41LDE1Ni43ODEzLDMwMS41LDE2MC43ODEzLDI5Ny41LDE1Ni43ODEzIiBzdHlsZT0ic3Ryb2tlOiMxODE4MTg7c3Ryb2tlLXdpZHRoOjE7Ii8+PHRleHQgZmlsbD0iIzAwMDAwMCIgZm9udC1mYW1pbHk9InNhbnMtc2VyaWYiIGZvbnQtc2l6ZT0iMTMiIGZvbnQtd2VpZ2h0PSJib2xkIiBsZW5ndGhBZGp1c3Q9InNwYWNpbmciIHRleHRMZW5ndGg9IjYuNSIgeD0iMjk3LjUiIHk9IjE0MC4xNTYzIj4yPC90ZXh0Pjx0ZXh0IGZpbGw9IiMwMDAwMDAiIGZvbnQtZmFtaWx5PSJzYW5zLXNlcmlmIiBmb250LXNpemU9IjEzIiBsZW5ndGhBZGp1c3Q9InNwYWNpbmciIHRleHRMZW5ndGg9IjUyIiB4PSIzMDgiIHk9IjE0MC4xNTYzIj4mIzI1MTkxOyYjMzQ4OTI7JiMyMDIxOTsmIzIxMTUzOzwvdGV4dD48L2c+PGcgY2xhc3M9Im1lc3NhZ2UiIGRhdGEtcGFydGljaXBhbnQtMT0idGFzayIgZGF0YS1wYXJ0aWNpcGFudC0yPSJ0YXNrIj48bGluZSBzdHlsZT0ic3Ryb2tlOiMxODE4MTg7c3Ryb2tlLXdpZHRoOjE7IiB4MT0iMjkwLjUiIHgyPSIzMzIuNSIgeTE9IjE4NC42OTUzIiB5Mj0iMTg0LjY5NTMiLz48bGluZSBzdHlsZT0ic3Ryb2tlOiMxODE4MTg7c3Ryb2tlLXdpZHRoOjE7IiB4MT0iMzMyLjUiIHgyPSIzMzIuNSIgeTE9IjE4NC42OTUzIiB5Mj0iMTk3LjY5NTMiLz48bGluZSBzdHlsZT0ic3Ryb2tlOiMxODE4MTg7c3Ryb2tlLXdpZHRoOjE7IiB4MT0iMjkxLjUiIHgyPSIzMzIuNSIgeTE9IjE5Ny42OTUzIiB5Mj0iMTk3LjY5NTMiLz48cG9seWdvbiBmaWxsPSIjMTgxODE4IiBwb2ludHM9IjMwMS41LDE5My42OTUzLDI5MS41LDE5Ny42OTUzLDMwMS41LDIwMS42OTUzLDI5Ny41LDE5Ny42OTUzIiBzdHlsZT0ic3Ryb2tlOiMxODE4MTg7c3Ryb2tlLXdpZHRoOjE7Ii8+PHRleHQgZmlsbD0iIzAwMDAwMCIgZm9udC1mYW1pbHk9InNhbnMtc2VyaWYiIGZvbnQtc2l6ZT0iMTMiIGZvbnQtd2VpZ2h0PSJib2xkIiBsZW5ndGhBZGp1c3Q9InNwYWNpbmciIHRleHRMZW5ndGg9IjYuNSIgeD0iMjk3LjUiIHk9IjE4MS4wNzAzIj4zPC90ZXh0Pjx0ZXh0IGZpbGw9IiMwMDAwMDAiIGZvbnQtZmFtaWx5PSJzYW5zLXNlcmlmIiBmb250LXNpemU9IjEzIiBsZW5ndGhBZGp1c3Q9InNwYWNpbmciIHRleHRMZW5ndGg9IjEzMCIgeD0iMzA4IiB5PSIxODEuMDcwMyI+JiMzNTc0NTsmIzMxNjM5OyYjMjUxOTE7JiMzNDg5MjsmIzI2MTAyOyYjMzgzODg7JiMzMzUzOTsmIzIyMjYwOyYjMjE0NDI7JiMyNTk2ODs8L3RleHQ+PC9nPjxwYXRoIGQ9Ik0yMDYsMTczLjI4MTMgTDIwNiwxOTYuMjgxMyBMMjg1LDE5Ni4yODEzIEwyODUsMTgzLjI4MTMgTDI3NSwxNzMuMjgxMyBMMjA2LDE3My4yODEzIiBmaWxsPSIjRkVGRkREIiBzdHlsZT0ic3Ryb2tlOiMxODE4MTg7c3Ryb2tlLXdpZHRoOjAuNTsiLz48cGF0aCBkPSJNMjc1LDE3My4yODEzIEwyNzUsMTgzLjI4MTMgTDI4NSwxODMuMjgxMyBMMjc1LDE3My4yODEzIiBmaWxsPSIjRkVGRkREIiBzdHlsZT0ic3Ryb2tlOiMxODE4MTg7c3Ryb2tlLXdpZHRoOjAuNTsiLz48dGV4dCBmaWxsPSIjMDAwMDAwIiBmb250LWZhbWlseT0ic2Fucy1zZXJpZiIgZm9udC1zaXplPSIxMyIgbGVuZ3RoQWRqdXN0PSJzcGFjaW5nIiB0ZXh0TGVuZ3RoPSI1OC41IiB4PSIyMTIiIHk9IjE5MC41NzAzIj5yZWRpcyYjMzM3MTk7JiMyMTQ2Mjs8L3RleHQ+PGcgY2xhc3M9Im1lc3NhZ2UiIGRhdGEtcGFydGljaXBhbnQtMT0idGFzayIgZGF0YS1wYXJ0aWNpcGFudC0yPSJ0YXNrIj48bGluZSBzdHlsZT0ic3Ryb2tlOiMxODE4MTg7c3Ryb2tlLXdpZHRoOjE7IiB4MT0iMjkwLjUiIHgyPSIzMzIuNSIgeTE9IjIyNS42MDk0IiB5Mj0iMjI1LjYwOTQiLz48bGluZSBzdHlsZT0ic3Ryb2tlOiMxODE4MTg7c3Ryb2tlLXdpZHRoOjE7IiB4MT0iMzMyLjUiIHgyPSIzMzIuNSIgeTE9IjIyNS42MDk0IiB5Mj0iMjM4LjYwOTQiLz48bGluZSBzdHlsZT0ic3Ryb2tlOiMxODE4MTg7c3Ryb2tlLXdpZHRoOjE7IiB4MT0iMjkxLjUiIHgyPSIzMzIuNSIgeTE9IjIzOC42MDk0IiB5Mj0iMjM4LjYwOTQiLz48cG9seWdvbiBmaWxsPSIjMTgxODE4IiBwb2ludHM9IjMwMS41LDIzNC42MDk0LDI5MS41LDIzOC42MDk0LDMwMS41LDI0Mi42MDk0LDI5Ny41LDIzOC42MDk0IiBzdHlsZT0ic3Ryb2tlOiMxODE4MTg7c3Ryb2tlLXdpZHRoOjE7Ii8+PHRleHQgZmlsbD0iIzAwMDAwMCIgZm9udC1mYW1pbHk9InNhbnMtc2VyaWYiIGZvbnQtc2l6ZT0iMTMiIGZvbnQtd2VpZ2h0PSJib2xkIiBsZW5ndGhBZGp1c3Q9InNwYWNpbmciIHRleHRMZW5ndGg9IjYuNSIgeD0iMjk3LjUiIHk9IjIyMS45ODQ0Ij40PC90ZXh0Pjx0ZXh0IGZpbGw9IiMwMDAwMDAiIGZvbnQtZmFtaWx5PSJzYW5zLXNlcmlmIiBmb250LXNpemU9IjEzIiBsZW5ndGhBZGp1c3Q9InNwYWNpbmciIHRleHRMZW5ndGg9Ijc4IiB4PSIzMDgiIHk9IjIyMS45ODQ0Ij4mIzMzNzE5OyYjMjE0NjI7JiMzNjEzNDsmIzIxNDk1OyYjMjA0NDk7JiMyNDY4Nzs8L3RleHQ+PC9nPjxnIGNsYXNzPSJtZXNzYWdlIiBkYXRhLXBhcnRpY2lwYW50LTE9InRhc2siIGRhdGEtcGFydGljaXBhbnQtMj0idGFzayI+PGxpbmUgc3R5bGU9InN0cm9rZTojMTgxODE4O3N0cm9rZS13aWR0aDoxOyIgeDE9IjI5MC41IiB4Mj0iMzMyLjUiIHkxPSIyNjYuNTIzNCIgeTI9IjI2Ni41MjM0Ii8+PGxpbmUgc3R5bGU9InN0cm9rZTojMTgxODE4O3N0cm9rZS13aWR0aDoxOyIgeDE9IjMzMi41IiB4Mj0iMzMyLjUiIHkxPSIyNjYuNTIzNCIgeTI9IjI3OS41MjM0Ii8+PGxpbmUgc3R5bGU9InN0cm9rZTojMTgxODE4O3N0cm9rZS13aWR0aDoxOyIgeDE9IjI5MS41IiB4Mj0iMzMyLjUiIHkxPSIyNzkuNTIzNCIgeTI9IjI3OS41MjM0Ii8+PHBvbHlnb24gZmlsbD0iIzE4MTgxOCIgcG9pbnRzPSIzMDEuNSwyNzUuNTIzNCwyOTEuNSwyNzkuNTIzNCwzMDEuNSwyODMuNTIzNCwyOTcuNSwyNzkuNTIzNCIgc3R5bGU9InN0cm9rZTojMTgxODE4O3N0cm9rZS13aWR0aDoxOyIvPjx0ZXh0IGZpbGw9IiMwMDAwMDAiIGZvbnQtZmFtaWx5PSJzYW5zLXNlcmlmIiBmb250LXNpemU9IjEzIiBmb250LXdlaWdodD0iYm9sZCIgbGVuZ3RoQWRqdXN0PSJzcGFjaW5nIiB0ZXh0TGVuZ3RoPSI2LjUiIHg9IjI5Ny41IiB5PSIyNjIuODk4NCI+NTwvdGV4dD48dGV4dCBmaWxsPSIjMDAwMDAwIiBmb250LWZhbWlseT0ic2Fucy1zZXJpZiIgZm9udC1zaXplPSIxMyIgbGVuZ3RoQWRqdXN0PSJzcGFjaW5nIiB0ZXh0TGVuZ3RoPSIxNTYiIHg9IjMwOCIgeT0iMjYyLjg5ODQiPiYjMjAxNzQ7cmVkaXMmIzMzNzE5OyYjMjE0NjI7JiMzNTgxMzsmIzM2MTM0OyYjMjE0OTU7JiMzMDM0MDt0b2tlbjwvdGV4dD48L2c+PHBhdGggZD0iTTI0MiwyOTQuNTIzNCBMMzA2LjUsMjk0LjUyMzQgTDMwNi41LDMwMC40Mzc1IEwyOTYuNSwzMTAuNDM3NSBMMjQyLDMxMC40Mzc1IEwyNDIsMjk0LjUyMzQiIGZpbGw9IiNGRkQ3MDAiIHN0eWxlPSJzdHJva2U6IzAwMDAwMDtzdHJva2Utd2lkdGg6MS41OyIvPjxyZWN0IGZpbGw9Im5vbmUiIGhlaWdodD0iMTI2LjQyOTciIHN0eWxlPSJzdHJva2U6IzAwMDAwMDtzdHJva2Utd2lkdGg6MS41OyIgd2lkdGg9IjcxMy41IiB4PSIyNDIiIHk9IjI5NC41MjM0Ii8+PHRleHQgZmlsbD0iIzAwMDAwMCIgZm9udC1mYW1pbHk9InNhbnMtc2VyaWYiIGZvbnQtc2l6ZT0iMTMiIGZvbnQtd2VpZ2h0PSJib2xkIiBsZW5ndGhBZGp1c3Q9InNwYWNpbmciIHRleHRMZW5ndGg9IjE5LjUiIHg9IjI1NyIgeT0iMzA3LjgxMjUiPmFsdDwvdGV4dD48dGV4dCBmaWxsPSIjMDAwMDAwIiBmb250LWZhbWlseT0ic2Fucy1zZXJpZiIgZm9udC1zaXplPSIxMSIgZm9udC13ZWlnaHQ9ImJvbGQiIGxlbmd0aEFkanVzdD0ic3BhY2luZyIgdGV4dExlbmd0aD0iMzMiIHg9IjMyMS41IiB5PSIzMDYuOTIxOSI+WyYjMjYzNzc7JiMyMDU0MDtdPC90ZXh0PjxsaW5lIHN0eWxlPSJzdHJva2U6IzAwMDAwMDtzdHJva2Utd2lkdGg6MTtzdHJva2UtZGFzaGFycmF5OjIuMCwyLjA7IiB4MT0iMjQyIiB4Mj0iOTU1LjUiIHkxPSIzMTEuNDM3NSIgeTI9IjMxMS40Mzc1Ii8+PHRleHQgZmlsbD0iIzAwMDAwMCIgZm9udC1mYW1pbHk9InNhbnMtc2VyaWYiIGZvbnQtc2l6ZT0iMTEiIGZvbnQtd2VpZ2h0PSJib2xkIiBsZW5ndGhBZGp1c3Q9InNwYWNpbmciIHRleHRMZW5ndGg9IjE5OCIgeD0iMjQ3IiB5PSIzMjEuODM1OSI+WyYjMjc4MDk7JiMyMDU0MDsmIzY1Mjg4OyYjMjQwNTA7JiMzMjQ2MzsmIzM2ODA3OyYjMjYzOTk7JiM2NTI5MjsmIzM3MzI1OyYjMjYwMzI7JiMzMzcxOTsmIzIxNDYyOyYjMjUxMTA7JiMzMjc3MzsmIzIxMDQ3OyYjMjYwMzI7JiM2NTI4OTtdPC90ZXh0PjxnIGNsYXNzPSJtZXNzYWdlIiBkYXRhLXBhcnRpY2lwYW50LTE9InRhc2siIGRhdGEtcGFydGljaXBhbnQtMj0iYXBpIj48cG9seWdvbiBmaWxsPSIjMTgxODE4IiBwb2ludHM9IjU5Mi41LDM0MC4xMjUsNjAyLjUsMzQ0LjEyNSw1OTIuNSwzNDguMTI1LDU5Ni41LDM0NC4xMjUiIHN0eWxlPSJzdHJva2U6IzE4MTgxODtzdHJva2Utd2lkdGg6MTsiLz48bGluZSBzdHlsZT0ic3Ryb2tlOiMxODE4MTg7c3Ryb2tlLXdpZHRoOjE7IiB4MT0iMjkwLjUiIHgyPSI1OTguNSIgeTE9IjM0NC4xMjUiIHkyPSIzNDQuMTI1Ii8+PHRleHQgZmlsbD0iIzAwMDAwMCIgZm9udC1mYW1pbHk9InNhbnMtc2VyaWYiIGZvbnQtc2l6ZT0iMTMiIGZvbnQtd2VpZ2h0PSJib2xkIiBsZW5ndGhBZGp1c3Q9InNwYWNpbmciIHRleHRMZW5ndGg9IjYuNSIgeD0iMjk3LjUiIHk9IjM0MC41Ij42PC90ZXh0Pjx0ZXh0IGZpbGw9IiMwMDAwMDAiIGZvbnQtZmFtaWx5PSJzYW5zLXNlcmlmIiBmb250LXNpemU9IjEzIiBsZW5ndGhBZGp1c3Q9InNwYWNpbmciIHRleHRMZW5ndGg9IjIxNC41IiB4PSIzMDgiIHk9IjM0MC41Ij4mIzI2NjgxOyYjMjU0NTQ7JiMxOTk3NzsmIzI2MDQxOyYjMjE4MzA7JiMyMjQ3ODsmIzM2MTM0OyYjMjE0OTU7JiMzNTg0MzsmIzI5OTkyO3Rva2VuJiMyMTA0NzsmIzI2MDMyOyYjMjU1MDk7JiMyMTQ3NTs8L3RleHQ+PC9nPjxnIGNsYXNzPSJtZXNzYWdlIiBkYXRhLXBhcnRpY2lwYW50LTE9ImFwaSIgZGF0YS1wYXJ0aWNpcGFudC0yPSJwbGF0Zm9ybSI+PHBvbHlnb24gZmlsbD0iIzE4MTgxOCIgcG9pbnRzPSI4OTUsMzY4LjAzOTEsOTA1LDM3Mi4wMzkxLDg5NSwzNzYuMDM5MSw4OTksMzcyLjAzOTEiIHN0eWxlPSJzdHJva2U6IzE4MTgxODtzdHJva2Utd2lkdGg6MTsiLz48bGluZSBzdHlsZT0ic3Ryb2tlOiMxODE4MTg7c3Ryb2tlLXdpZHRoOjE7IiB4MT0iNjA0LjUiIHgyPSI5MDEiIHkxPSIzNzIuMDM5MSIgeTI9IjM3Mi4wMzkxIi8+PHRleHQgZmlsbD0iIzAwMDAwMCIgZm9udC1mYW1pbHk9InNhbnMtc2VyaWYiIGZvbnQtc2l6ZT0iMTMiIGZvbnQtd2VpZ2h0PSJib2xkIiBsZW5ndGhBZGp1c3Q9InNwYWNpbmciIHRleHRMZW5ndGg9IjYuNSIgeD0iNjExLjUiIHk9IjM2OC40MTQxIj43PC90ZXh0Pjx0ZXh0IGZpbGw9IiMwMDAwMDAiIGZvbnQtZmFtaWx5PSJzYW5zLXNlcmlmIiBmb250LXNpemU9IjEzIiBsZW5ndGhBZGp1c3Q9InNwYWNpbmciIHRleHRMZW5ndGg9IjIxNC41IiB4PSI2MjIiIHk9IjM2OC40MTQxIj4mIzI2NjgxOyYjMjU0NTQ7JiMxOTk3NzsmIzI2MDQxOyYjMjE4MzA7JiMyMjQ3ODsmIzM2MTM0OyYjMjE0OTU7JiMzNTg0MzsmIzI5OTkyO3Rva2VuJiMyMTA0NzsmIzI2MDMyOyYjMjU1MDk7JiMyMTQ3NTs8L3RleHQ+PC9nPjxnIGNsYXNzPSJtZXNzYWdlIiBkYXRhLXBhcnRpY2lwYW50LTE9InRhc2siIGRhdGEtcGFydGljaXBhbnQtMj0idGFzayI+PGxpbmUgc3R5bGU9InN0cm9rZTojMTgxODE4O3N0cm9rZS13aWR0aDoxOyIgeDE9IjI5MC41IiB4Mj0iMzMyLjUiIHkxPSIzOTkuOTUzMSIgeTI9IjM5OS45NTMxIi8+PGxpbmUgc3R5bGU9InN0cm9rZTojMTgxODE4O3N0cm9rZS13aWR0aDoxOyIgeDE9IjMzMi41IiB4Mj0iMzMyLjUiIHkxPSIzOTkuOTUzMSIgeTI9IjQxMi45NTMxIi8+PGxpbmUgc3R5bGU9InN0cm9rZTojMTgxODE4O3N0cm9rZS13aWR0aDoxOyIgeDE9IjI5MS41IiB4Mj0iMzMyLjUiIHkxPSI0MTIuOTUzMSIgeTI9IjQxMi45NTMxIi8+PHBvbHlnb24gZmlsbD0iIzE4MTgxOCIgcG9pbnRzPSIzMDEuNSw0MDguOTUzMSwyOTEuNSw0MTIuOTUzMSwzMDEuNSw0MTYuOTUzMSwyOTcuNSw0MTIuOTUzMSIgc3R5bGU9InN0cm9rZTojMTgxODE4O3N0cm9rZS13aWR0aDoxOyIvPjx0ZXh0IGZpbGw9IiMwMDAwMDAiIGZvbnQtZmFtaWx5PSJzYW5zLXNlcmlmIiBmb250LXNpemU9IjEzIiBmb250LXdlaWdodD0iYm9sZCIgbGVuZ3RoQWRqdXN0PSJzcGFjaW5nIiB0ZXh0TGVuZ3RoPSI2LjUiIHg9IjI5Ny41IiB5PSIzOTYuMzI4MSI+ODwvdGV4dD48dGV4dCBmaWxsPSIjMDAwMDAwIiBmb250LWZhbWlseT0ic2Fucy1zZXJpZiIgZm9udC1zaXplPSIxMyIgbGVuZ3RoQWRqdXN0PSJzcGFjaW5nIiB0ZXh0TGVuZ3RoPSIyNTMuNSIgeD0iMzA4IiB5PSIzOTYuMzI4MSI+JiMyNTM0NTsmIzIwMDM3OyYjMjEyNzA7JiMyMTA0MDtyZWRpcyYjNjUyOTI7JiMzNjgwNzsmIzI2Mzk5OyYjMjYxMDI7JiMzODM4ODs9dG9rZW4mIzI2Mzc3OyYjMjU5Mjg7JiMyNjM5OTsqMC44PC90ZXh0PjwvZz48ZyBjbGFzcz0ibWVzc2FnZSIgZGF0YS1wYXJ0aWNpcGFudC0xPSJ0YXNrIiBkYXRhLXBhcnRpY2lwYW50LTI9ImFwaSI+PHBvbHlnb24gZmlsbD0iIzE4MTgxOCIgcG9pbnRzPSI1OTIuNSw0NDMuODY3Miw2MDIuNSw0NDcuODY3Miw1OTIuNSw0NTEuODY3Miw1OTYuNSw0NDcuODY3MiIgc3R5bGU9InN0cm9rZTojMTgxODE4O3N0cm9rZS13aWR0aDoxOyIvPjxsaW5lIHN0eWxlPSJzdHJva2U6IzE4MTgxODtzdHJva2Utd2lkdGg6MTsiIHgxPSIyOTAuNSIgeDI9IjU5OC41IiB5MT0iNDQ3Ljg2NzIiIHkyPSI0NDcuODY3MiIvPjx0ZXh0IGZpbGw9IiMwMDAwMDAiIGZvbnQtZmFtaWx5PSJzYW5zLXNlcmlmIiBmb250LXNpemU9IjEzIiBmb250LXdlaWdodD0iYm9sZCIgbGVuZ3RoQWRqdXN0PSJzcGFjaW5nIiB0ZXh0TGVuZ3RoPSI2LjUiIHg9IjI5Ny41IiB5PSI0NDQuMjQyMiI+OTwvdGV4dD48dGV4dCBmaWxsPSIjMDAwMDAwIiBmb250LWZhbWlseT0ic2Fucy1zZXJpZiIgZm9udC1zaXplPSIxMyIgbGVuZ3RoQWRqdXN0PSJzcGFjaW5nIiB0ZXh0TGVuZ3RoPSIyNzkuNSIgeD0iMzA4IiB5PSI0NDQuMjQyMiI+JiMyNjY4MTsmIzI1NDU0OyYjMTk5Nzc7JiMyNjA0MTsmIzIxODMwOyYjMjI0Nzg7JiMzNjEzNDsmIzIxNDk1OyYjMTk5Nzg7JiMyODE5MjsmIzM2OTQ3OyYjMjA0NDk7JiMyNDY4NzsmIzIxMTUyOyYjMzY3MzM7JiMzNTc0NjsmIzIxMzMzO2FwaSYjMjQxODI7JiMzNTgzMTsmIzI3NzE0OzwvdGV4dD48L2c+PGcgY2xhc3M9Im1lc3NhZ2UiIGRhdGEtcGFydGljaXBhbnQtMT0iYXBpIiBkYXRhLXBhcnRpY2lwYW50LTI9InBsYXRmb3JtIj48cG9seWdvbiBmaWxsPSIjMTgxODE4IiBwb2ludHM9Ijg5NSw0NzEuNzgxMyw5MDUsNDc1Ljc4MTMsODk1LDQ3OS43ODEzLDg5OSw0NzUuNzgxMyIgc3R5bGU9InN0cm9rZTojMTgxODE4O3N0cm9rZS13aWR0aDoxOyIvPjxsaW5lIHN0eWxlPSJzdHJva2U6IzE4MTgxODtzdHJva2Utd2lkdGg6MTsiIHgxPSI2MDQuNSIgeDI9IjkwMSIgeTE9IjQ3NS43ODEzIiB5Mj0iNDc1Ljc4MTMiLz48dGV4dCBmaWxsPSIjMDAwMDAwIiBmb250LWZhbWlseT0ic2Fucy1zZXJpZiIgZm9udC1zaXplPSIxMyIgZm9udC13ZWlnaHQ9ImJvbGQiIGxlbmd0aEFkanVzdD0ic3BhY2luZyIgdGV4dExlbmd0aD0iMTMiIHg9IjYxMS41IiB5PSI0NzIuMTU2MyI+MTA8L3RleHQ+PHRleHQgZmlsbD0iIzAwMDAwMCIgZm9udC1mYW1pbHk9InNhbnMtc2VyaWYiIGZvbnQtc2l6ZT0iMTMiIGxlbmd0aEFkanVzdD0ic3BhY2luZyIgdGV4dExlbmd0aD0iMTMwIiB4PSI2MjguNSIgeT0iNDcyLjE1NjMiPiYjMzU4MzE7JiMyNzcxNDsmIzI0MTc5OyYjMjE0ODg7JiMzMzcxOTsmIzIxNDYyOyYjMzU3NDY7JiMyMTMzMzsmIzI1NTA5OyYjMjE0NzU7PC90ZXh0PjwvZz48ZyBjbGFzcz0ibWVzc2FnZSIgZGF0YS1wYXJ0aWNpcGFudC0xPSJwbGF0Zm9ybSIgZGF0YS1wYXJ0aWNpcGFudC0yPSJhcGkiPjxwb2x5Z29uIGZpbGw9IiMxODE4MTgiIHBvaW50cz0iNjE1LjUsNDk5LjY5NTMsNjA1LjUsNTAzLjY5NTMsNjE1LjUsNTA3LjY5NTMsNjExLjUsNTAzLjY5NTMiIHN0eWxlPSJzdHJva2U6IzE4MTgxODtzdHJva2Utd2lkdGg6MTsiLz48bGluZSBzdHlsZT0ic3Ryb2tlOiMxODE4MTg7c3Ryb2tlLXdpZHRoOjE7IiB4MT0iNjA5LjUiIHgyPSI5MDYiIHkxPSI1MDMuNjk1MyIgeTI9IjUwMy42OTUzIi8+PHRleHQgZmlsbD0iIzAwMDAwMCIgZm9udC1mYW1pbHk9InNhbnMtc2VyaWYiIGZvbnQtc2l6ZT0iMTMiIGZvbnQtd2VpZ2h0PSJib2xkIiBsZW5ndGhBZGp1c3Q9InNwYWNpbmciIHRleHRMZW5ndGg9IjEzIiB4PSI2MjEuNSIgeT0iNTAwLjA3MDMiPjExPC90ZXh0Pjx0ZXh0IGZpbGw9IiMwMDAwMDAiIGZvbnQtZmFtaWx5PSJzYW5zLXNlcmlmIiBmb250LXNpemU9IjEzIiBsZW5ndGhBZGp1c3Q9InNwYWNpbmciIHRleHRMZW5ndGg9IjEwNCIgeD0iNjM4LjUiIHk9IjUwMC4wNzAzIj4mIzM2ODIwOyYjMjIyMzg7JiMzNTc0NjsmIzIxMzMzOyYjMjEwMTU7JiMzNDkyMDsmIzI1OTY4OyYjMjU0NTQ7PC90ZXh0PjwvZz48ZyBjbGFzcz0ibWVzc2FnZSIgZGF0YS1wYXJ0aWNpcGFudC0xPSJhcGkiIGRhdGEtcGFydGljaXBhbnQtMj0iYXBpIj48bGluZSBzdHlsZT0ic3Ryb2tlOiMxODE4MTg7c3Ryb2tlLXdpZHRoOjE7IiB4MT0iNjA0LjUiIHgyPSI2NDYuNSIgeTE9IjUzMS42MDk0IiB5Mj0iNTMxLjYwOTQiLz48bGluZSBzdHlsZT0ic3Ryb2tlOiMxODE4MTg7c3Ryb2tlLXdpZHRoOjE7IiB4MT0iNjQ2LjUiIHgyPSI2NDYuNSIgeTE9IjUzMS42MDk0IiB5Mj0iNTQ0LjYwOTQiLz48bGluZSBzdHlsZT0ic3Ryb2tlOiMxODE4MTg7c3Ryb2tlLXdpZHRoOjE7IiB4MT0iNjA1LjUiIHgyPSI2NDYuNSIgeTE9IjU0NC42MDk0IiB5Mj0iNTQ0LjYwOTQiLz48cG9seWdvbiBmaWxsPSIjMTgxODE4IiBwb2ludHM9IjYxNS41LDU0MC42MDk0LDYwNS41LDU0NC42MDk0LDYxNS41LDU0OC42MDk0LDYxMS41LDU0NC42MDk0IiBzdHlsZT0ic3Ryb2tlOiMxODE4MTg7c3Ryb2tlLXdpZHRoOjE7Ii8+PHRleHQgZmlsbD0iIzAwMDAwMCIgZm9udC1mYW1pbHk9InNhbnMtc2VyaWYiIGZvbnQtc2l6ZT0iMTMiIGZvbnQtd2VpZ2h0PSJib2xkIiBsZW5ndGhBZGp1c3Q9InNwYWNpbmciIHRleHRMZW5ndGg9IjEzIiB4PSI2MTEuNSIgeT0iNTI3Ljk4NDQiPjEyPC90ZXh0Pjx0ZXh0IGZpbGw9IiMwMDAwMDAiIGZvbnQtZmFtaWx5PSJzYW5zLXNlcmlmIiBmb250LXNpemU9IjEzIiBsZW5ndGhBZGp1c3Q9InNwYWNpbmciIHRleHRMZW5ndGg9Ijc4IiB4PSI2MjguNSIgeT0iNTI3Ljk4NDQiPiYjMzU3NjA7JiMyNDQwNTsmIzM1ODMxOyYjMjc3MTQ7JiMyNjA4NTsmIzI0NTM1OzwvdGV4dD48L2c+PGcgY2xhc3M9Im1lc3NhZ2UiIGRhdGEtcGFydGljaXBhbnQtMT0iYXBpIiBkYXRhLXBhcnRpY2lwYW50LTI9InRhc2siPjxwb2x5Z29uIGZpbGw9IiMxODE4MTgiIHBvaW50cz0iMzAxLjUsNTY4LjUyMzQsMjkxLjUsNTcyLjUyMzQsMzAxLjUsNTc2LjUyMzQsMjk3LjUsNTcyLjUyMzQiIHN0eWxlPSJzdHJva2U6IzE4MTgxODtzdHJva2Utd2lkdGg6MTsiLz48bGluZSBzdHlsZT0ic3Ryb2tlOiMxODE4MTg7c3Ryb2tlLXdpZHRoOjE7IiB4MT0iMjk1LjUiIHgyPSI2MDMuNSIgeTE9IjU3Mi41MjM0IiB5Mj0iNTcyLjUyMzQiLz48dGV4dCBmaWxsPSIjMDAwMDAwIiBmb250LWZhbWlseT0ic2Fucy1zZXJpZiIgZm9udC1zaXplPSIxMyIgZm9udC13ZWlnaHQ9ImJvbGQiIGxlbmd0aEFkanVzdD0ic3BhY2luZyIgdGV4dExlbmd0aD0iMTMiIHg9IjMwNy41IiB5PSI1NjguODk4NCI+MTM8L3RleHQ+PHRleHQgZmlsbD0iIzAwMDAwMCIgZm9udC1mYW1pbHk9InNhbnMtc2VyaWYiIGZvbnQtc2l6ZT0iMTMiIGxlbmd0aEFkanVzdD0ic3BhY2luZyIgdGV4dExlbmd0aD0iMTA0IiB4PSIzMjQuNSIgeT0iNTY4Ljg5ODQiPiYjMzY4MjA7JiMyMjIzODsmIzM1NzQ2OyYjMjEzMzM7JiMyMTAxNTsmIzM0OTIwOyYjMjU5Njg7JiMyNTQ1NDs8L3RleHQ+PC9nPjxnIGNsYXNzPSJtZXNzYWdlIiBkYXRhLXBhcnRpY2lwYW50LTE9InRhc2siIGRhdGEtcGFydGljaXBhbnQtMj0idGFzayI+PGxpbmUgc3R5bGU9InN0cm9rZTojMTgxODE4O3N0cm9rZS13aWR0aDoxOyIgeDE9IjI5MC41IiB4Mj0iMzMyLjUiIHkxPSI2MDAuNDM3NSIgeTI9IjYwMC40Mzc1Ii8+PGxpbmUgc3R5bGU9InN0cm9rZTojMTgxODE4O3N0cm9rZS13aWR0aDoxOyIgeDE9IjMzMi41IiB4Mj0iMzMyLjUiIHkxPSI2MDAuNDM3NSIgeTI9IjYxMy40Mzc1Ii8+PGxpbmUgc3R5bGU9InN0cm9rZTojMTgxODE4O3N0cm9rZS13aWR0aDoxOyIgeDE9IjI5MS41IiB4Mj0iMzMyLjUiIHkxPSI2MTMuNDM3NSIgeTI9IjYxMy40Mzc1Ii8+PHBvbHlnb24gZmlsbD0iIzE4MTgxOCIgcG9pbnRzPSIzMDEuNSw2MDkuNDM3NSwyOTEuNSw2MTMuNDM3NSwzMDEuNSw2MTcuNDM3NSwyOTcuNSw2MTMuNDM3NSIgc3R5bGU9InN0cm9rZTojMTgxODE4O3N0cm9rZS13aWR0aDoxOyIvPjx0ZXh0IGZpbGw9IiMwMDAwMDAiIGZvbnQtZmFtaWx5PSJzYW5zLXNlcmlmIiBmb250LXNpemU9IjEzIiBmb250LXdlaWdodD0iYm9sZCIgbGVuZ3RoQWRqdXN0PSJzcGFjaW5nIiB0ZXh0TGVuZ3RoPSIxMyIgeD0iMjk3LjUiIHk9IjU5Ni44MTI1Ij4xNDwvdGV4dD48dGV4dCBmaWxsPSIjMDAwMDAwIiBmb250LWZhbWlseT0ic2Fucy1zZXJpZiIgZm9udC1zaXplPSIxMyIgbGVuZ3RoQWRqdXN0PSJzcGFjaW5nIiB0ZXh0TGVuZ3RoPSI5MSIgeD0iMzE0LjUiIHk9IjU5Ni44MTI1Ij4mIzIxMDI4OyYjMjYwMjk7dG90YWxDb3VudDwvdGV4dD48L2c+PHBhdGggZD0iTTEwLDYyOC40Mzc1IEw3NC41LDYyOC40Mzc1IEw3NC41LDYzNC4zNTE2IEw2NC41LDY0NC4zNTE2IEwxMCw2NDQuMzUxNiBMMTAsNjI4LjQzNzUiIGZpbGw9IiNGRkQ3MDAiIHN0eWxlPSJzdHJva2U6IzAwMDAwMDtzdHJva2Utd2lkdGg6MS41OyIvPjxyZWN0IGZpbGw9Im5vbmUiIGhlaWdodD0iMzc5Ljc0MjIiIHN0eWxlPSJzdHJva2U6IzAwMDAwMDtzdHJva2Utd2lkdGg6MS41OyIgd2lkdGg9IjQ5NyIgeD0iMTAiIHk9IjYyOC40Mzc1Ii8+PHRleHQgZmlsbD0iIzAwMDAwMCIgZm9udC1mYW1pbHk9InNhbnMtc2VyaWYiIGZvbnQtc2l6ZT0iMTMiIGZvbnQtd2VpZ2h0PSJib2xkIiBsZW5ndGhBZGp1c3Q9InNwYWNpbmciIHRleHRMZW5ndGg9IjE5LjUiIHg9IjI1IiB5PSI2NDEuNzI2NiI+YWx0PC90ZXh0Pjx0ZXh0IGZpbGw9IiMwMDAwMDAiIGZvbnQtZmFtaWx5PSJzYW5zLXNlcmlmIiBmb250LXNpemU9IjExIiBmb250LXdlaWdodD0iYm9sZCIgbGVuZ3RoQWRqdXN0PSJzcGFjaW5nIiB0ZXh0TGVuZ3RoPSI4OCIgeD0iODkuNSIgeT0iNjQwLjgzNTkiPlt0b3RhbENvdW50JiMzMDQ1NjsmIzMxNTYxO108L3RleHQ+PGcgY2xhc3M9Im1lc3NhZ2UiIGRhdGEtcGFydGljaXBhbnQtMT0idGFzayIgZGF0YS1wYXJ0aWNpcGFudC0yPSJ0YXNrIj48bGluZSBzdHlsZT0ic3Ryb2tlOiMxODE4MTg7c3Ryb2tlLXdpZHRoOjE7c3Ryb2tlLWRhc2hhcnJheToyLjAsMi4wOyIgeDE9IjI5MC41IiB4Mj0iMzMyLjUiIHkxPSI2NjQuMjY1NiIgeTI9IjY2NC4yNjU2Ii8+PGxpbmUgc3R5bGU9InN0cm9rZTojMTgxODE4O3N0cm9rZS13aWR0aDoxO3N0cm9rZS1kYXNoYXJyYXk6Mi4wLDIuMDsiIHgxPSIzMzIuNSIgeDI9IjMzMi41IiB5MT0iNjY0LjI2NTYiIHkyPSI2NzcuMjY1NiIvPjxsaW5lIHN0eWxlPSJzdHJva2U6IzE4MTgxODtzdHJva2Utd2lkdGg6MTtzdHJva2UtZGFzaGFycmF5OjIuMCwyLjA7IiB4MT0iMjkxLjUiIHgyPSIzMzIuNSIgeTE9IjY3Ny4yNjU2IiB5Mj0iNjc3LjI2NTYiLz48cG9seWdvbiBmaWxsPSIjMTgxODE4IiBwb2ludHM9IjMwMS41LDY3My4yNjU2LDI5MS41LDY3Ny4yNjU2LDMwMS41LDY4MS4yNjU2LDI5Ny41LDY3Ny4yNjU2IiBzdHlsZT0ic3Ryb2tlOiMxODE4MTg7c3Ryb2tlLXdpZHRoOjE7Ii8+PHRleHQgZmlsbD0iIzAwMDAwMCIgZm9udC1mYW1pbHk9InNhbnMtc2VyaWYiIGZvbnQtc2l6ZT0iMTMiIGZvbnQtd2VpZ2h0PSJib2xkIiBsZW5ndGhBZGp1c3Q9InNwYWNpbmciIHRleHRMZW5ndGg9IjEzIiB4PSIyOTcuNSIgeT0iNjYwLjY0MDYiPjE1PC90ZXh0Pjx0ZXh0IGZpbGw9IiMwMDAwMDAiIGZvbnQtZmFtaWx5PSJzYW5zLXNlcmlmIiBmb250LXNpemU9IjEzIiBsZW5ndGhBZGp1c3Q9InNwYWNpbmciIHRleHRMZW5ndGg9IjEwNCIgeD0iMzE0LjUiIHk9IjY2MC42NDA2Ij4mIzM2ODIwOyYjMjIyMzg7JiMzNTc0NjsmIzIxMzMzOyYjMjEwMTU7JiMzNDkyMDsmIzI1OTY4OyYjMjU0NTQ7PC90ZXh0PjwvZz48ZyBjbGFzcz0ibWVzc2FnZSIgZGF0YS1wYXJ0aWNpcGFudC0xPSJ0YXNrIiBkYXRhLXBhcnRpY2lwYW50LTI9InRhc2siPjxsaW5lIHN0eWxlPSJzdHJva2U6IzE4MTgxODtzdHJva2Utd2lkdGg6MTsiIHgxPSIyOTAuNSIgeDI9IjMzMi41IiB5MT0iNzA1LjE3OTciIHkyPSI3MDUuMTc5NyIvPjxsaW5lIHN0eWxlPSJzdHJva2U6IzE4MTgxODtzdHJva2Utd2lkdGg6MTsiIHgxPSIzMzIuNSIgeDI9IjMzMi41IiB5MT0iNzA1LjE3OTciIHkyPSI3MTguMTc5NyIvPjxsaW5lIHN0eWxlPSJzdHJva2U6IzE4MTgxODtzdHJva2Utd2lkdGg6MTsiIHgxPSIyOTEuNSIgeDI9IjMzMi41IiB5MT0iNzE4LjE3OTciIHkyPSI3MTguMTc5NyIvPjxwb2x5Z29uIGZpbGw9IiMxODE4MTgiIHBvaW50cz0iMzAxLjUsNzE0LjE3OTcsMjkxLjUsNzE4LjE3OTcsMzAxLjUsNzIyLjE3OTcsMjk3LjUsNzE4LjE3OTciIHN0eWxlPSJzdHJva2U6IzE4MTgxODtzdHJva2Utd2lkdGg6MTsiLz48dGV4dCBmaWxsPSIjMDAwMDAwIiBmb250LWZhbWlseT0ic2Fucy1zZXJpZiIgZm9udC1zaXplPSIxMyIgZm9udC13ZWlnaHQ9ImJvbGQiIGxlbmd0aEFkanVzdD0ic3BhY2luZyIgdGV4dExlbmd0aD0iMTMiIHg9IjI5Ny41IiB5PSI3MDEuNTU0NyI+MTY8L3RleHQ+PHRleHQgZmlsbD0iIzAwMDAwMCIgZm9udC1mYW1pbHk9InNhbnMtc2VyaWYiIGZvbnQtc2l6ZT0iMTMiIGxlbmd0aEFkanVzdD0ic3BhY2luZyIgdGV4dExlbmd0aD0iMTE3IiB4PSIzMTQuNSIgeT0iNzAxLjU1NDciPiYjMjYxNTk7JiMyMTU0MjsmIzM2ODI3OyYjMzQ4OTI7JiMyODA0MDsmIzI0Njg3OyYjMjAzMDc7JiMyMDk5OTsmIzIxMTA2OzwvdGV4dD48L2c+PGcgY2xhc3M9Im1lc3NhZ2UiIGRhdGEtcGFydGljaXBhbnQtMT0idGFzayIgZGF0YS1wYXJ0aWNpcGFudC0yPSJ0YXNrIj48bGluZSBzdHlsZT0ic3Ryb2tlOiMxODE4MTg7c3Ryb2tlLXdpZHRoOjE7IiB4MT0iMjkwLjUiIHgyPSIzMzIuNSIgeTE9Ijc0Ni4wOTM4IiB5Mj0iNzQ2LjA5MzgiLz48bGluZSBzdHlsZT0ic3Ryb2tlOiMxODE4MTg7c3Ryb2tlLXdpZHRoOjE7IiB4MT0iMzMyLjUiIHgyPSIzMzIuNSIgeTE9Ijc0Ni4wOTM4IiB5Mj0iNzU5LjA5MzgiLz48bGluZSBzdHlsZT0ic3Ryb2tlOiMxODE4MTg7c3Ryb2tlLXdpZHRoOjE7IiB4MT0iMjkxLjUiIHgyPSIzMzIuNSIgeTE9Ijc1OS4wOTM4IiB5Mj0iNzU5LjA5MzgiLz48cG9seWdvbiBmaWxsPSIjMTgxODE4IiBwb2ludHM9IjMwMS41LDc1NS4wOTM4LDI5MS41LDc1OS4wOTM4LDMwMS41LDc2My4wOTM4LDI5Ny41LDc1OS4wOTM4IiBzdHlsZT0ic3Ryb2tlOiMxODE4MTg7c3Ryb2tlLXdpZHRoOjE7Ii8+PHRleHQgZmlsbD0iIzAwMDAwMCIgZm9udC1mYW1pbHk9InNhbnMtc2VyaWYiIGZvbnQtc2l6ZT0iMTMiIGZvbnQtd2VpZ2h0PSJib2xkIiBsZW5ndGhBZGp1c3Q9InNwYWNpbmciIHRleHRMZW5ndGg9IjEzIiB4PSIyOTcuNSIgeT0iNzQyLjQ2ODgiPjE3PC90ZXh0Pjx0ZXh0IGZpbGw9IiMwMDAwMDAiIGZvbnQtZmFtaWx5PSJzYW5zLXNlcmlmIiBmb250LXNpemU9IjEzIiBsZW5ndGhBZGp1c3Q9InNwYWNpbmciIHRleHRMZW5ndGg9IjUyIiB4PSIzMTQuNSIgeT0iNzQyLjQ2ODgiPiYjMjgwNDA7JiMyNDY4NzsmIzMyNDUyOyYjMzUwMTM7PC90ZXh0PjwvZz48ZyBjbGFzcz0ibWVzc2FnZSIgZGF0YS1wYXJ0aWNpcGFudC0xPSJ0YXNrIiBkYXRhLXBhcnRpY2lwYW50LTI9Im1xIj48cG9seWdvbiBmaWxsPSIjMTgxODE4IiBwb2ludHM9IjY5LjUsNzgzLjAwNzgsNTkuNSw3ODcuMDA3OCw2OS41LDc5MS4wMDc4LDY1LjUsNzg3LjAwNzgiIHN0eWxlPSJzdHJva2U6IzE4MTgxODtzdHJva2Utd2lkdGg6MTsiLz48bGluZSBzdHlsZT0ic3Ryb2tlOiMxODE4MTg7c3Ryb2tlLXdpZHRoOjE7IiB4MT0iNjMuNSIgeDI9IjI4OS41IiB5MT0iNzg3LjAwNzgiIHkyPSI3ODcuMDA3OCIvPjx0ZXh0IGZpbGw9IiMwMDAwMDAiIGZvbnQtZmFtaWx5PSJzYW5zLXNlcmlmIiBmb250LXNpemU9IjEzIiBmb250LXdlaWdodD0iYm9sZCIgbGVuZ3RoQWRqdXN0PSJzcGFjaW5nIiB0ZXh0TGVuZ3RoPSIxMyIgeD0iNzUuNSIgeT0iNzgzLjM4MjgiPjE4PC90ZXh0Pjx0ZXh0IGZpbGw9IiMwMDAwMDAiIGZvbnQtZmFtaWx5PSJzYW5zLXNlcmlmIiBmb250LXNpemU9IjEzIiBsZW5ndGhBZGp1c3Q9InNwYWNpbmciIHRleHRMZW5ndGg9IjUyIiB4PSI5Mi41IiB5PSI3ODMuMzgyOCI+JiMyMTQ1NzsmIzM2ODY1OyYjMjgwNDA7JiMyNDY4Nzs8L3RleHQ+PC9nPjxnIGNsYXNzPSJtZXNzYWdlIiBkYXRhLXBhcnRpY2lwYW50LTE9Im1xIiBkYXRhLXBhcnRpY2lwYW50LTI9InRhc2siPjxwb2x5Z29uIGZpbGw9IiMxODE4MTgiIHBvaW50cz0iMjc4LjUsODEwLjkyMTksMjg4LjUsODE0LjkyMTksMjc4LjUsODE4LjkyMTksMjgyLjUsODE0LjkyMTkiIHN0eWxlPSJzdHJva2U6IzE4MTgxODtzdHJva2Utd2lkdGg6MTsiLz48bGluZSBzdHlsZT0ic3Ryb2tlOiMxODE4MTg7c3Ryb2tlLXdpZHRoOjE7c3Ryb2tlLWRhc2hhcnJheToyLjAsMi4wOyIgeDE9IjU4LjUiIHgyPSIyODQuNSIgeTE9IjgxNC45MjE5IiB5Mj0iODE0LjkyMTkiLz48dGV4dCBmaWxsPSIjMDAwMDAwIiBmb250LWZhbWlseT0ic2Fucy1zZXJpZiIgZm9udC1zaXplPSIxMyIgZm9udC13ZWlnaHQ9ImJvbGQiIGxlbmd0aEFkanVzdD0ic3BhY2luZyIgdGV4dExlbmd0aD0iMTMiIHg9IjY1LjUiIHk9IjgxMS4yOTY5Ij4xOTwvdGV4dD48dGV4dCBmaWxsPSIjMDAwMDAwIiBmb250LWZhbWlseT0ic2Fucy1zZXJpZiIgZm9udC1zaXplPSIxMyIgbGVuZ3RoQWRqdXN0PSJzcGFjaW5nIiB0ZXh0TGVuZ3RoPSI1MiIgeD0iODIuNSIgeT0iODExLjI5NjkiPiYjMjE0NTc7JiMzNjg2NTsmIzI1MTA0OyYjMjExNTE7PC90ZXh0PjwvZz48ZyBjbGFzcz0ibWVzc2FnZSIgZGF0YS1wYXJ0aWNpcGFudC0xPSJ0YXNrIiBkYXRhLXBhcnRpY2lwYW50LTI9InRhc2siPjxsaW5lIHN0eWxlPSJzdHJva2U6IzE4MTgxODtzdHJva2Utd2lkdGg6MTsiIHgxPSIyOTAuNSIgeDI9IjMzMi41IiB5MT0iODQyLjgzNTkiIHkyPSI4NDIuODM1OSIvPjxsaW5lIHN0eWxlPSJzdHJva2U6IzE4MTgxODtzdHJva2Utd2lkdGg6MTsiIHgxPSIzMzIuNSIgeDI9IjMzMi41IiB5MT0iODQyLjgzNTkiIHkyPSI4NTUuODM1OSIvPjxsaW5lIHN0eWxlPSJzdHJva2U6IzE4MTgxODtzdHJva2Utd2lkdGg6MTsiIHgxPSIyOTEuNSIgeDI9IjMzMi41IiB5MT0iODU1LjgzNTkiIHkyPSI4NTUuODM1OSIvPjxwb2x5Z29uIGZpbGw9IiMxODE4MTgiIHBvaW50cz0iMzAxLjUsODUxLjgzNTksMjkxLjUsODU1LjgzNTksMzAxLjUsODU5LjgzNTksMjk3LjUsODU1LjgzNTkiIHN0eWxlPSJzdHJva2U6IzE4MTgxODtzdHJva2Utd2lkdGg6MTsiLz48dGV4dCBmaWxsPSIjMDAwMDAwIiBmb250LWZhbWlseT0ic2Fucy1zZXJpZiIgZm9udC1zaXplPSIxMyIgZm9udC13ZWlnaHQ9ImJvbGQiIGxlbmd0aEFkanVzdD0ic3BhY2luZyIgdGV4dExlbmd0aD0iMTMiIHg9IjI5Ny41IiB5PSI4MzkuMjEwOSI+MjA8L3RleHQ+PHRleHQgZmlsbD0iIzAwMDAwMCIgZm9udC1mYW1pbHk9InNhbnMtc2VyaWYiIGZvbnQtc2l6ZT0iMTMiIGxlbmd0aEFkanVzdD0ic3BhY2luZyIgdGV4dExlbmd0aD0iOTcuNSIgeD0iMzE0LjUiIHk9IjgzOS4yMTA5Ij4mIzI2MzU2OyYjMjYwMzI7cmVkaXMmIzI2MTAyOyYjMzgzODg7JiMyMDMwMTs8L3RleHQ+PC9nPjxnIGNsYXNzPSJtZXNzYWdlIiBkYXRhLXBhcnRpY2lwYW50LTE9InRhc2siIGRhdGEtcGFydGljaXBhbnQtMj0iam9iIj48cG9seWdvbiBmaWxsPSIjMTgxODE4IiBwb2ludHM9IjE1Ni41LDg5Ni42NjQxLDE0Ni41LDkwMC42NjQxLDE1Ni41LDkwNC42NjQxLDE1Mi41LDkwMC42NjQxIiBzdHlsZT0ic3Ryb2tlOiMxODE4MTg7c3Ryb2tlLXdpZHRoOjE7Ii8+PGxpbmUgc3R5bGU9InN0cm9rZTojMTgxODE4O3N0cm9rZS13aWR0aDoxO3N0cm9rZS1kYXNoYXJyYXk6Mi4wLDIuMDsiIHgxPSIxNTAuNSIgeDI9IjI4OS41IiB5MT0iOTAwLjY2NDEiIHkyPSI5MDAuNjY0MSIvPjx0ZXh0IGZpbGw9IiMwMDAwMDAiIGZvbnQtZmFtaWx5PSJzYW5zLXNlcmlmIiBmb250LXNpemU9IjEzIiBmb250LXdlaWdodD0iYm9sZCIgbGVuZ3RoQWRqdXN0PSJzcGFjaW5nIiB0ZXh0TGVuZ3RoPSIxMyIgeD0iMTYyLjUiIHk9Ijg5Ny4wMzkxIj4yMTwvdGV4dD48dGV4dCBmaWxsPSIjMDAwMDAwIiBmb250LWZhbWlseT0ic2Fucy1zZXJpZiIgZm9udC1zaXplPSIxMyIgbGVuZ3RoQWRqdXN0PSJzcGFjaW5nIiB0ZXh0TGVuZ3RoPSI3OCIgeD0iMTc5LjUiIHk9Ijg5Ny4wMzkxIj4mIzIwMjE5OyYjMjExNTM7JiMyNTE5MTsmIzM0ODkyOyYjMzI0Njc7JiMyNjUyNDs8L3RleHQ+PC9nPjxwYXRoIGQ9Ik0yOTUsODY4LjgzNTkgTDI5NSw5MTkuODM1OSBMNDkxLDkxOS44MzU5IEw0OTEsODc4LjgzNTkgTDQ4MSw4NjguODM1OSBMMjk1LDg2OC44MzU5IiBmaWxsPSIjRkVGRkREIiBzdHlsZT0ic3Ryb2tlOiMxODE4MTg7c3Ryb2tlLXdpZHRoOjAuNTsiLz48cGF0aCBkPSJNNDgxLDg2OC44MzU5IEw0ODEsODc4LjgzNTkgTDQ5MSw4NzguODM1OSBMNDgxLDg2OC44MzU5IiBmaWxsPSIjRkVGRkREIiBzdHlsZT0ic3Ryb2tlOiMxODE4MTg7c3Ryb2tlLXdpZHRoOjAuNTsiLz48dGV4dCBmaWxsPSIjMDAwMDAwIiBmb250LWZhbWlseT0ic2Fucy1zZXJpZiIgZm9udC1zaXplPSIxMyIgbGVuZ3RoQWRqdXN0PSJzcGFjaW5nIiB0ZXh0TGVuZ3RoPSIxNDMiIHg9IjMwMSIgeT0iODg2LjEyNSI+JiMyNjM5OTsmIzM4Mzg4OyYjMjEwMjg7JiMyNjAyOTsmIzI2MTU5OyYjMjE1NDI7JiMyNjE1OTsmIzIwMDIwOyYjMjYxMDI7JiMyMDIxOTsmIzIxMTUzOzwvdGV4dD48dGV4dCBmaWxsPSIjMDAwMDAwIiBmb250LWZhbWlseT0ic2Fucy1zZXJpZiIgZm9udC1zaXplPSIxMyIgbGVuZ3RoQWRqdXN0PSJzcGFjaW5nIiB0ZXh0TGVuZ3RoPSIxNjkiIHg9IjMwNy41IiB5PSI5MDAuMDM5MSI+JiMyNjE1OTsmIzY1MjkyOyYjMjEwMTc7JiMzOTA2OTsmIzIyODA2OyYjMzY4Mjc7JiMzNDg5MjsmIzIwMjE5OyYjMjExNTM7JiMzNjkyMzsmIzM2NzUzOyYjMjEwMjQ7JiMzODUwMDs8L3RleHQ+PHRleHQgZmlsbD0iIzAwMDAwMCIgZm9udC1mYW1pbHk9InNhbnMtc2VyaWYiIGZvbnQtc2l6ZT0iMTMiIGxlbmd0aEFkanVzdD0ic3BhY2luZyIgdGV4dExlbmd0aD0iMTMwIiB4PSIzMDcuNSIgeT0iOTEzLjk1MzEiPiYjMjE1NDI7JiM2NTI5MjsmIzIxMDE3OyYjMjAxNjU7JiMzNjgyNzsmIzM0ODkyOyYjMzI0Njc7JiMyNjUyNDsmIzIyMjM4OyYjMjA4ODk7PC90ZXh0PjxsaW5lIHN0eWxlPSJzdHJva2U6IzAwMDAwMDtzdHJva2Utd2lkdGg6MTtzdHJva2UtZGFzaGFycmF5OjIuMCwyLjA7IiB4MT0iMTAiIHgyPSI1MDciIHkxPSI5MjYuNTc4MSIgeTI9IjkyNi41NzgxIi8+PHRleHQgZmlsbD0iIzAwMDAwMCIgZm9udC1mYW1pbHk9InNhbnMtc2VyaWYiIGZvbnQtc2l6ZT0iMTEiIGZvbnQtd2VpZ2h0PSJib2xkIiBsZW5ndGhBZGp1c3Q9InNwYWNpbmciIHRleHRMZW5ndGg9Ijg4IiB4PSIxNSIgeT0iOTM2Ljk3NjYiPlt0b3RhbENvdW50JiMxOTk4MTsmIzMxNTYxO108L3RleHQ+PGcgY2xhc3M9Im1lc3NhZ2UiIGRhdGEtcGFydGljaXBhbnQtMT0idGFzayIgZGF0YS1wYXJ0aWNpcGFudC0yPSJ0YXNrIj48bGluZSBzdHlsZT0ic3Ryb2tlOiMxODE4MTg7c3Ryb2tlLXdpZHRoOjE7IiB4MT0iMjkwLjUiIHgyPSIzMzIuNSIgeTE9Ijk1OS4yNjU2IiB5Mj0iOTU5LjI2NTYiLz48bGluZSBzdHlsZT0ic3Ryb2tlOiMxODE4MTg7c3Ryb2tlLXdpZHRoOjE7IiB4MT0iMzMyLjUiIHgyPSIzMzIuNSIgeTE9Ijk1OS4yNjU2IiB5Mj0iOTcyLjI2NTYiLz48bGluZSBzdHlsZT0ic3Ryb2tlOiMxODE4MTg7c3Ryb2tlLXdpZHRoOjE7IiB4MT0iMjkxLjUiIHgyPSIzMzIuNSIgeTE9Ijk3Mi4yNjU2IiB5Mj0iOTcyLjI2NTYiLz48cG9seWdvbiBmaWxsPSIjMTgxODE4IiBwb2ludHM9IjMwMS41LDk2OC4yNjU2LDI5MS41LDk3Mi4yNjU2LDMwMS41LDk3Ni4yNjU2LDI5Ny41LDk3Mi4yNjU2IiBzdHlsZT0ic3Ryb2tlOiMxODE4MTg7c3Ryb2tlLXdpZHRoOjE7Ii8+PHRleHQgZmlsbD0iIzAwMDAwMCIgZm9udC1mYW1pbHk9InNhbnMtc2VyaWYiIGZvbnQtc2l6ZT0iMTMiIGZvbnQtd2VpZ2h0PSJib2xkIiBsZW5ndGhBZGp1c3Q9InNwYWNpbmciIHRleHRMZW5ndGg9IjEzIiB4PSIyOTcuNSIgeT0iOTU1LjY0MDYiPjIyPC90ZXh0Pjx0ZXh0IGZpbGw9IiMwMDAwMDAiIGZvbnQtZmFtaWx5PSJzYW5zLXNlcmlmIiBmb250LXNpemU9IjEzIiBsZW5ndGhBZGp1c3Q9InNwYWNpbmciIHRleHRMZW5ndGg9IjEzMCIgeD0iMzE0LjUiIHk9Ijk1NS42NDA2Ij4mIzM2ODIwOyYjMjIyMzg7JiMyMjgzMzsmIzM2MTMzOyYjNjUyOTI7JiMyNDQ1MzsmIzE5OTc5OyYjMjc0MjU7JiMyNTE5MTsmIzM0ODkyOzwvdGV4dD48L2c+PGcgY2xhc3M9Im1lc3NhZ2UiIGRhdGEtcGFydGljaXBhbnQtMT0idGFzayIgZGF0YS1wYXJ0aWNpcGFudC0yPSJqb2IiPjxwb2x5Z29uIGZpbGw9IiMxODE4MTgiIHBvaW50cz0iMTU2LjUsOTk2LjE3OTcsMTQ2LjUsMTAwMC4xNzk3LDE1Ni41LDEwMDQuMTc5NywxNTIuNSwxMDAwLjE3OTciIHN0eWxlPSJzdHJva2U6IzE4MTgxODtzdHJva2Utd2lkdGg6MTsiLz48bGluZSBzdHlsZT0ic3Ryb2tlOiMxODE4MTg7c3Ryb2tlLXdpZHRoOjE7IiB4MT0iMTUwLjUiIHgyPSIyODkuNSIgeTE9IjEwMDAuMTc5NyIgeTI9IjEwMDAuMTc5NyIvPjx0ZXh0IGZpbGw9IiMwMDAwMDAiIGZvbnQtZmFtaWx5PSJzYW5zLXNlcmlmIiBmb250LXNpemU9IjEzIiBmb250LXdlaWdodD0iYm9sZCIgbGVuZ3RoQWRqdXN0PSJzcGFjaW5nIiB0ZXh0TGVuZ3RoPSIxMyIgeD0iMTYyLjUiIHk9Ijk5Ni41NTQ3Ij4yMzwvdGV4dD48dGV4dCBmaWxsPSIjMDAwMDAwIiBmb250LWZhbWlseT0ic2Fucy1zZXJpZiIgZm9udC1zaXplPSIxMyIgbGVuZ3RoQWRqdXN0PSJzcGFjaW5nIiB0ZXh0TGVuZ3RoPSIxMDQiIHg9IjE3OS41IiB5PSI5OTYuNTU0NyI+JiMzNTg0MzsmIzI0MjMwOyYjMjYwODU7JiMyNDUzNTsmIzI1MTkxOyYjMzQ4OTI7JiMyMjgzMzsmIzM2MTMzOzwvdGV4dD48L2c+PHJlY3QgZmlsbD0iI0VFRUVFRSIgaGVpZ2h0PSIzIiBzdHlsZT0ic3Ryb2tlOiNFRUVFRUU7c3Ryb2tlLXdpZHRoOjE7IiB3aWR0aD0iMTM1MS41IiB4PSIwIiB5PSIxMDM1LjEzNjciLz48bGluZSBzdHlsZT0ic3Ryb2tlOiMwMDAwMDA7c3Ryb2tlLXdpZHRoOjE7IiB4MT0iMCIgeDI9IjEzNTEuNSIgeTE9IjEwMzUuMTM2NyIgeTI9IjEwMzUuMTM2NyIvPjxsaW5lIHN0eWxlPSJzdHJva2U6IzAwMDAwMDtzdHJva2Utd2lkdGg6MTsiIHgxPSIwIiB4Mj0iMTM1MS41IiB5MT0iMTAzOC4xMzY3IiB5Mj0iMTAzOC4xMzY3Ii8+PHJlY3QgZmlsbD0iI0VFRUVFRSIgaGVpZ2h0PSIyMS45MTQxIiBzdHlsZT0ic3Ryb2tlOiMwMDAwMDA7c3Ryb2tlLXdpZHRoOjI7IiB3aWR0aD0iNjYiIHg9IjY0Mi43NSIgeT0iMTAyNS4xNzk3Ii8+PHRleHQgZmlsbD0iIzAwMDAwMCIgZm9udC1mYW1pbHk9InNhbnMtc2VyaWYiIGZvbnQtc2l6ZT0iMTMiIGZvbnQtd2VpZ2h0PSJib2xkIiBsZW5ndGhBZGp1c3Q9InNwYWNpbmciIHRleHRMZW5ndGg9IjUyIiB4PSI2NDguNzUiIHk9IjEwNDEuNDY4OCI+JiMyODA0MDsmIzI0Njg3OyYjMjgwNDA7JiMzNjE1Mzs8L3RleHQ+PGcgY2xhc3M9Im1lc3NhZ2UiIGRhdGEtcGFydGljaXBhbnQtMT0idHJhbnNmZXIiIGRhdGEtcGFydGljaXBhbnQtMj0ibXEiPjxwb2x5Z29uIGZpbGw9IiMxODE4MTgiIHBvaW50cz0iNjkuNSwxMDczLjAwNzgsNTkuNSwxMDc3LjAwNzgsNjkuNSwxMDgxLjAwNzgsNjUuNSwxMDc3LjAwNzgiIHN0eWxlPSJzdHJva2U6IzE4MTgxODtzdHJva2Utd2lkdGg6MTsiLz48bGluZSBzdHlsZT0ic3Ryb2tlOiMxODE4MTg7c3Ryb2tlLXdpZHRoOjE7IiB4MT0iNjMuNSIgeDI9IjcxMi41IiB5MT0iMTA3Ny4wMDc4IiB5Mj0iMTA3Ny4wMDc4Ii8+PHRleHQgZmlsbD0iIzAwMDAwMCIgZm9udC1mYW1pbHk9InNhbnMtc2VyaWYiIGZvbnQtc2l6ZT0iMTMiIGZvbnQtd2VpZ2h0PSJib2xkIiBsZW5ndGhBZGp1c3Q9InNwYWNpbmciIHRleHRMZW5ndGg9IjEzIiB4PSI3NS41IiB5PSIxMDczLjM4MjgiPjI0PC90ZXh0Pjx0ZXh0IGZpbGw9IiMwMDAwMDAiIGZvbnQtZmFtaWx5PSJzYW5zLXNlcmlmIiBmb250LXNpemU9IjEzIiBsZW5ndGhBZGp1c3Q9InNwYWNpbmciIHRleHRMZW5ndGg9IjUyIiB4PSI5Mi41IiB5PSIxMDczLjM4MjgiPiYjMjgwNDA7JiMzNjE1MzsmIzI4MDQwOyYjMjQ2ODc7PC90ZXh0PjwvZz48ZyBjbGFzcz0ibWVzc2FnZSIgZGF0YS1wYXJ0aWNpcGFudC0xPSJ0cmFuc2ZlciIgZGF0YS1wYXJ0aWNpcGFudC0yPSJ0cmFuc2ZlciI+PGxpbmUgc3R5bGU9InN0cm9rZTojMTgxODE4O3N0cm9rZS13aWR0aDoxOyIgeDE9IjcxMy41IiB4Mj0iNzU1LjUiIHkxPSIxMTA0LjkyMTkiIHkyPSIxMTA0LjkyMTkiLz48bGluZSBzdHlsZT0ic3Ryb2tlOiMxODE4MTg7c3Ryb2tlLXdpZHRoOjE7IiB4MT0iNzU1LjUiIHgyPSI3NTUuNSIgeTE9IjExMDQuOTIxOSIgeTI9IjExMTcuOTIxOSIvPjxsaW5lIHN0eWxlPSJzdHJva2U6IzE4MTgxODtzdHJva2Utd2lkdGg6MTsiIHgxPSI3MTQuNSIgeDI9Ijc1NS41IiB5MT0iMTExNy45MjE5IiB5Mj0iMTExNy45MjE5Ii8+PHBvbHlnb24gZmlsbD0iIzE4MTgxOCIgcG9pbnRzPSI3MjQuNSwxMTEzLjkyMTksNzE0LjUsMTExNy45MjE5LDcyNC41LDExMjEuOTIxOSw3MjAuNSwxMTE3LjkyMTkiIHN0eWxlPSJzdHJva2U6IzE4MTgxODtzdHJva2Utd2lkdGg6MTsiLz48dGV4dCBmaWxsPSIjMDAwMDAwIiBmb250LWZhbWlseT0ic2Fucy1zZXJpZiIgZm9udC1zaXplPSIxMyIgZm9udC13ZWlnaHQ9ImJvbGQiIGxlbmd0aEFkanVzdD0ic3BhY2luZyIgdGV4dExlbmd0aD0iMTMiIHg9IjcyMC41IiB5PSIxMTAxLjI5NjkiPjI1PC90ZXh0Pjx0ZXh0IGZpbGw9IiMwMDAwMDAiIGZvbnQtZmFtaWx5PSJzYW5zLXNlcmlmIiBmb250LXNpemU9IjEzIiBsZW5ndGhBZGp1c3Q9InNwYWNpbmciIHRleHRMZW5ndGg9IjUyIiB4PSI3MzcuNSIgeT0iMTEwMS4yOTY5Ij4mIzM2NzE2OyYjMjU0NDI7JiMyMjc4ODsmIzI5NzAyOzwvdGV4dD48L2c+PHBhdGggZD0iTTEwLDExMzIuOTIxOSBMMTA3LDExMzIuOTIxOSBMMTA3LDExMzguODM1OSBMOTcsMTE0OC44MzU5IEwxMCwxMTQ4LjgzNTkgTDEwLDExMzIuOTIxOSIgZmlsbD0iI0VFRUVFRSIgc3R5bGU9InN0cm9rZTojMDAwMDAwO3N0cm9rZS13aWR0aDoxLjU7Ii8+PHJlY3QgZmlsbD0ibm9uZSIgaGVpZ2h0PSIzMTcuMjI2NiIgc3R5bGU9InN0cm9rZTojMDAwMDAwO3N0cm9rZS13aWR0aDoxLjU7IiB3aWR0aD0iMTA1My41IiB4PSIxMCIgeT0iMTEzMi45MjE5Ii8+PHRleHQgZmlsbD0iIzAwMDAwMCIgZm9udC1mYW1pbHk9InNhbnMtc2VyaWYiIGZvbnQtc2l6ZT0iMTMiIGZvbnQtd2VpZ2h0PSJib2xkIiBsZW5ndGhBZGp1c3Q9InNwYWNpbmciIHRleHRMZW5ndGg9IjUyIiB4PSIyNSIgeT0iMTE0Ni4yMTA5Ij4mIzIwOTk4OyYjMjQwNjc7JiMyNDMzNTsmIzM4MTQ1OzwvdGV4dD48cGF0aCBkPSJNMTA2OC41LDExMzcuOTIxOSBMMTA2OC41LDExNjAuOTIxOSBMMTMzNi41LDExNjAuOTIxOSBMMTMzNi41LDExNDcuOTIxOSBMMTMyNi41LDExMzcuOTIxOSBMMTA2OC41LDExMzcuOTIxOSIgZmlsbD0iI0ZFRkZERCIgc3R5bGU9InN0cm9rZTojMTgxODE4O3N0cm9rZS13aWR0aDowLjU7Ii8+PHBhdGggZD0iTTEzMjYuNSwxMTM3LjkyMTkgTDEzMjYuNSwxMTQ3LjkyMTkgTDEzMzYuNSwxMTQ3LjkyMTkgTDEzMjYuNSwxMTM3LjkyMTkiIGZpbGw9IiNGRUZGREQiIHN0eWxlPSJzdHJva2U6IzE4MTgxODtzdHJva2Utd2lkdGg6MC41OyIvPjx0ZXh0IGZpbGw9IiMwMDAwMDAiIGZvbnQtZmFtaWx5PSJzYW5zLXNlcmlmIiBmb250LXNpemU9IjEzIiBsZW5ndGhBZGp1c3Q9InNwYWNpbmciIHRleHRMZW5ndGg9IjI0NyIgeD0iMTA3NC41IiB5PSIxMTU1LjIxMDkiPiYjMjU1MTI7JiMzNjg2NTsmIzMyNDY3OyYjMjY1MjQ7JiMyMTQ4MjsmIzMzMDIxOyYjMjE0ODI7JiMzMzAyMTsmIzM2ODIwOyYjMjIyMzg7JiMyNTM1MTsmIzIzNDUwOyYjMjQzMjI7JiMyNDEyMDsmIzY1MjkyOyYjMjUxNjU7JiMyMDI1MDsmIzM3MzI1OyYjMzU3OTc7PC90ZXh0PjxnIGNsYXNzPSJtZXNzYWdlIiBkYXRhLXBhcnRpY2lwYW50LTE9InRyYW5zZmVyIiBkYXRhLXBhcnRpY2lwYW50LTI9InRyYW5zZmVyIj48bGluZSBzdHlsZT0ic3Ryb2tlOiMxODE4MTg7c3Ryb2tlLXdpZHRoOjE7IiB4MT0iNzEzLjUiIHgyPSI3NTUuNSIgeTE9IjExNjguNzUiIHkyPSIxMTY4Ljc1Ii8+PGxpbmUgc3R5bGU9InN0cm9rZTojMTgxODE4O3N0cm9rZS13aWR0aDoxOyIgeDE9Ijc1NS41IiB4Mj0iNzU1LjUiIHkxPSIxMTY4Ljc1IiB5Mj0iMTE4MS43NSIvPjxsaW5lIHN0eWxlPSJzdHJva2U6IzE4MTgxODtzdHJva2Utd2lkdGg6MTsiIHgxPSI3MTQuNSIgeDI9Ijc1NS41IiB5MT0iMTE4MS43NSIgeTI9IjExODEuNzUiLz48cG9seWdvbiBmaWxsPSIjMTgxODE4IiBwb2ludHM9IjcyNC41LDExNzcuNzUsNzE0LjUsMTE4MS43NSw3MjQuNSwxMTg1Ljc1LDcyMC41LDExODEuNzUiIHN0eWxlPSJzdHJva2U6IzE4MTgxODtzdHJva2Utd2lkdGg6MTsiLz48dGV4dCBmaWxsPSIjMDAwMDAwIiBmb250LWZhbWlseT0ic2Fucy1zZXJpZiIgZm9udC1zaXplPSIxMyIgZm9udC13ZWlnaHQ9ImJvbGQiIGxlbmd0aEFkanVzdD0ic3BhY2luZyIgdGV4dExlbmd0aD0iMTMiIHg9IjcyMC41IiB5PSIxMTY1LjEyNSI+MjY8L3RleHQ+PHRleHQgZmlsbD0iIzAwMDAwMCIgZm9udC1mYW1pbHk9InNhbnMtc2VyaWYiIGZvbnQtc2l6ZT0iMTMiIGxlbmd0aEFkanVzdD0ic3BhY2luZyIgdGV4dExlbmd0aD0iNDUuNSIgeD0iNzM3LjUiIHk9IjExNjUuMTI1Ij5yZWRpcyYjMzgxNDU7PC90ZXh0PjwvZz48ZyBjbGFzcz0ibWVzc2FnZSIgZGF0YS1wYXJ0aWNpcGFudC0xPSJ0cmFuc2ZlciIgZGF0YS1wYXJ0aWNpcGFudC0yPSJ0cmFuc2ZlciI+PGxpbmUgc3R5bGU9InN0cm9rZTojMTgxODE4O3N0cm9rZS13aWR0aDoxOyIgeDE9IjcxMy41IiB4Mj0iNzU1LjUiIHkxPSIxMjA5LjY2NDEiIHkyPSIxMjA5LjY2NDEiLz48bGluZSBzdHlsZT0ic3Ryb2tlOiMxODE4MTg7c3Ryb2tlLXdpZHRoOjE7IiB4MT0iNzU1LjUiIHgyPSI3NTUuNSIgeTE9IjEyMDkuNjY0MSIgeTI9IjEyMjIuNjY0MSIvPjxsaW5lIHN0eWxlPSJzdHJva2U6IzE4MTgxODtzdHJva2Utd2lkdGg6MTsiIHgxPSI3MTQuNSIgeDI9Ijc1NS41IiB5MT0iMTIyMi42NjQxIiB5Mj0iMTIyMi42NjQxIi8+PHBvbHlnb24gZmlsbD0iIzE4MTgxOCIgcG9pbnRzPSI3MjQuNSwxMjE4LjY2NDEsNzE0LjUsMTIyMi42NjQxLDcyNC41LDEyMjYuNjY0MSw3MjAuNSwxMjIyLjY2NDEiIHN0eWxlPSJzdHJva2U6IzE4MTgxODtzdHJva2Utd2lkdGg6MTsiLz48dGV4dCBmaWxsPSIjMDAwMDAwIiBmb250LWZhbWlseT0ic2Fucy1zZXJpZiIgZm9udC1zaXplPSIxMyIgZm9udC13ZWlnaHQ9ImJvbGQiIGxlbmd0aEFkanVzdD0ic3BhY2luZyIgdGV4dExlbmd0aD0iMTMiIHg9IjcyMC41IiB5PSIxMjA2LjAzOTEiPjI3PC90ZXh0Pjx0ZXh0IGZpbGw9IiMwMDAwMDAiIGZvbnQtZmFtaWx5PSJzYW5zLXNlcmlmIiBmb250LXNpemU9IjEzIiBsZW5ndGhBZGp1c3Q9InNwYWNpbmciIHRleHRMZW5ndGg9IjUyIiB4PSI3MzcuNSIgeT0iMTIwNi4wMzkxIj4mIzI0MTMwOyYjMzE1NjE7JiMzNjgwNzsmIzI4Mzg4OzwvdGV4dD48L2c+PGcgY2xhc3M9Im1lc3NhZ2UiIGRhdGEtcGFydGljaXBhbnQtMT0idHJhbnNmZXIiIGRhdGEtcGFydGljaXBhbnQtMj0idHJhbnNmZXIiPjxsaW5lIHN0eWxlPSJzdHJva2U6IzE4MTgxODtzdHJva2Utd2lkdGg6MTsiIHgxPSI3MTMuNSIgeDI9Ijc1NS41IiB5MT0iMTI1MC41NzgxIiB5Mj0iMTI1MC41NzgxIi8+PGxpbmUgc3R5bGU9InN0cm9rZTojMTgxODE4O3N0cm9rZS13aWR0aDoxOyIgeDE9Ijc1NS41IiB4Mj0iNzU1LjUiIHkxPSIxMjUwLjU3ODEiIHkyPSIxMjYzLjU3ODEiLz48bGluZSBzdHlsZT0ic3Ryb2tlOiMxODE4MTg7c3Ryb2tlLXdpZHRoOjE7IiB4MT0iNzE0LjUiIHgyPSI3NTUuNSIgeTE9IjEyNjMuNTc4MSIgeTI9IjEyNjMuNTc4MSIvPjxwb2x5Z29uIGZpbGw9IiMxODE4MTgiIHBvaW50cz0iNzI0LjUsMTI1OS41NzgxLDcxNC41LDEyNjMuNTc4MSw3MjQuNSwxMjY3LjU3ODEsNzIwLjUsMTI2My41NzgxIiBzdHlsZT0ic3Ryb2tlOiMxODE4MTg7c3Ryb2tlLXdpZHRoOjE7Ii8+PHRleHQgZmlsbD0iIzAwMDAwMCIgZm9udC1mYW1pbHk9InNhbnMtc2VyaWYiIGZvbnQtc2l6ZT0iMTMiIGZvbnQtd2VpZ2h0PSJib2xkIiBsZW5ndGhBZGp1c3Q9InNwYWNpbmciIHRleHRMZW5ndGg9IjEzIiB4PSI3MjAuNSIgeT0iMTI0Ni45NTMxIj4yODwvdGV4dD48dGV4dCBmaWxsPSIjMDAwMDAwIiBmb250LWZhbWlseT0ic2Fucy1zZXJpZiIgZm9udC1zaXplPSIxMyIgbGVuZ3RoQWRqdXN0PSJzcGFjaW5nIiB0ZXh0TGVuZ3RoPSIxMDQiIHg9IjczNy41IiB5PSIxMjQ2Ljk1MzEiPiYjMzU3NDY7JiMyMTMzMzsmIzMyNDc5OyYjMTk5Njg7JiMyNzE2OTsmIzIyNDExOyYjMzY3MTY7JiMyNTQ0Mjs8L3RleHQ+PC9nPjxnIGNsYXNzPSJtZXNzYWdlIiBkYXRhLXBhcnRpY2lwYW50LTE9InRyYW5zZmVyIiBkYXRhLXBhcnRpY2lwYW50LTI9InRyYW5zZmVyIj48bGluZSBzdHlsZT0ic3Ryb2tlOiMxODE4MTg7c3Ryb2tlLXdpZHRoOjE7IiB4MT0iNzEzLjUiIHgyPSI3NTUuNSIgeTE9IjEyOTEuNDkyMiIgeTI9IjEyOTEuNDkyMiIvPjxsaW5lIHN0eWxlPSJzdHJva2U6IzE4MTgxODtzdHJva2Utd2lkdGg6MTsiIHgxPSI3NTUuNSIgeDI9Ijc1NS41IiB5MT0iMTI5MS40OTIyIiB5Mj0iMTMwNC40OTIyIi8+PGxpbmUgc3R5bGU9InN0cm9rZTojMTgxODE4O3N0cm9rZS13aWR0aDoxOyIgeDE9IjcxNC41IiB4Mj0iNzU1LjUiIHkxPSIxMzA0LjQ5MjIiIHkyPSIxMzA0LjQ5MjIiLz48cG9seWdvbiBmaWxsPSIjMTgxODE4IiBwb2ludHM9IjcyNC41LDEzMDAuNDkyMiw3MTQuNSwxMzA0LjQ5MjIsNzI0LjUsMTMwOC40OTIyLDcyMC41LDEzMDQuNDkyMiIgc3R5bGU9InN0cm9rZTojMTgxODE4O3N0cm9rZS13aWR0aDoxOyIvPjx0ZXh0IGZpbGw9IiMwMDAwMDAiIGZvbnQtZmFtaWx5PSJzYW5zLXNlcmlmIiBmb250LXNpemU9IjEzIiBmb250LXdlaWdodD0iYm9sZCIgbGVuZ3RoQWRqdXN0PSJzcGFjaW5nIiB0ZXh0TGVuZ3RoPSIxMyIgeD0iNzIwLjUiIHk9IjEyODcuODY3MiI+Mjk8L3RleHQ+PHRleHQgZmlsbD0iIzAwMDAwMCIgZm9udC1mYW1pbHk9InNhbnMtc2VyaWYiIGZvbnQtc2l6ZT0iMTMiIGxlbmd0aEFkanVzdD0ic3BhY2luZyIgdGV4dExlbmd0aD0iMTA0IiB4PSI3MzcuNSIgeT0iMTI4Ny44NjcyIj4mIzMyNDc5OyYjMTk5Njg7JiMyNzE2OTsmIzIyNDExOyYjMjE0NTM7JiMyNDIwNzsmIzIxMDE1OyYjMjEyNzA7PC90ZXh0PjwvZz48ZyBjbGFzcz0ibWVzc2FnZSIgZGF0YS1wYXJ0aWNpcGFudC0xPSJ0cmFuc2ZlciIgZGF0YS1wYXJ0aWNpcGFudC0yPSJtYWxsIj48cG9seWdvbiBmaWxsPSIjMTgxODE4IiBwb2ludHM9Ijk5Mi41LDEzMjguNDA2MywxMDAyLjUsMTMzMi40MDYzLDk5Mi41LDEzMzYuNDA2Myw5OTYuNSwxMzMyLjQwNjMiIHN0eWxlPSJzdHJva2U6IzE4MTgxODtzdHJva2Utd2lkdGg6MTsiLz48bGluZSBzdHlsZT0ic3Ryb2tlOiMxODE4MTg7c3Ryb2tlLXdpZHRoOjE7IiB4MT0iNzEzLjUiIHgyPSI5OTguNSIgeTE9IjEzMzIuNDA2MyIgeTI9IjEzMzIuNDA2MyIvPjx0ZXh0IGZpbGw9IiMwMDAwMDAiIGZvbnQtZmFtaWx5PSJzYW5zLXNlcmlmIiBmb250LXNpemU9IjEzIiBmb250LXdlaWdodD0iYm9sZCIgbGVuZ3RoQWRqdXN0PSJzcGFjaW5nIiB0ZXh0TGVuZ3RoPSIxMyIgeD0iNzIwLjUiIHk9IjEzMjguNzgxMyI+MzA8L3RleHQ+PHRleHQgZmlsbD0iIzAwMDAwMCIgZm9udC1mYW1pbHk9InNhbnMtc2VyaWYiIGZvbnQtc2l6ZT0iMTMiIGxlbmd0aEFkanVzdD0ic3BhY2luZyIgdGV4dExlbmd0aD0iNzgiIHg9IjczNy41IiB5PSIxMzI4Ljc4MTMiPiYjMjU1MTI7JiMzNjg2NTsmIzM1NzQ2OyYjMjEzMzM7JiMyNTk2ODsmIzI1NDU0OzwvdGV4dD48L2c+PGcgY2xhc3M9Im1lc3NhZ2UiIGRhdGEtcGFydGljaXBhbnQtMT0idHJhbnNmZXIiIGRhdGEtcGFydGljaXBhbnQtMj0idHJhbnNmZXIiPjxsaW5lIHN0eWxlPSJzdHJva2U6IzE4MTgxODtzdHJva2Utd2lkdGg6MTsiIHgxPSI3MTMuNSIgeDI9Ijc1NS41IiB5MT0iMTM2MC4zMjAzIiB5Mj0iMTM2MC4zMjAzIi8+PGxpbmUgc3R5bGU9InN0cm9rZTojMTgxODE4O3N0cm9rZS13aWR0aDoxOyIgeDE9Ijc1NS41IiB4Mj0iNzU1LjUiIHkxPSIxMzYwLjMyMDMiIHkyPSIxMzczLjMyMDMiLz48bGluZSBzdHlsZT0ic3Ryb2tlOiMxODE4MTg7c3Ryb2tlLXdpZHRoOjE7IiB4MT0iNzE0LjUiIHgyPSI3NTUuNSIgeTE9IjEzNzMuMzIwMyIgeTI9IjEzNzMuMzIwMyIvPjxwb2x5Z29uIGZpbGw9IiMxODE4MTgiIHBvaW50cz0iNzI0LjUsMTM2OS4zMjAzLDcxNC41LDEzNzMuMzIwMyw3MjQuNSwxMzc3LjMyMDMsNzIwLjUsMTM3My4zMjAzIiBzdHlsZT0ic3Ryb2tlOiMxODE4MTg7c3Ryb2tlLXdpZHRoOjE7Ii8+PHRleHQgZmlsbD0iIzAwMDAwMCIgZm9udC1mYW1pbHk9InNhbnMtc2VyaWYiIGZvbnQtc2l6ZT0iMTMiIGZvbnQtd2VpZ2h0PSJib2xkIiBsZW5ndGhBZGp1c3Q9InNwYWNpbmciIHRleHRMZW5ndGg9IjEzIiB4PSI3MjAuNSIgeT0iMTM1Ni42OTUzIj4zMTwvdGV4dD48dGV4dCBmaWxsPSIjMDAwMDAwIiBmb250LWZhbWlseT0ic2Fucy1zZXJpZiIgZm9udC1zaXplPSIxMyIgbGVuZ3RoQWRqdXN0PSJzcGFjaW5nIiB0ZXh0TGVuZ3RoPSIxNjIuNSIgeD0iNzM3LjUiIHk9IjEzNTYuNjk1MyI+JiMyNjM1NjsmIzI2MDMyOyYjMTk5Nzk7JiMyMTQ1NzsmIzMyNDY3OyYjMjY1MjQ7JiM2NTI5MjsmIzI2MzU2OyYjMjYwMzI7JiMyNDEzMDsmIzMxNTYxO2tleTwvdGV4dD48L2c+PGcgY2xhc3M9Im1lc3NhZ2UiIGRhdGEtcGFydGljaXBhbnQtMT0idHJhbnNmZXIiIGRhdGEtcGFydGljaXBhbnQtMj0ibXEiPjxwb2x5Z29uIGZpbGw9IiMxODE4MTgiIHBvaW50cz0iNjkuNSwxMzk3LjIzNDQsNTkuNSwxNDAxLjIzNDQsNjkuNSwxNDA1LjIzNDQsNjUuNSwxNDAxLjIzNDQiIHN0eWxlPSJzdHJva2U6IzE4MTgxODtzdHJva2Utd2lkdGg6MTsiLz48bGluZSBzdHlsZT0ic3Ryb2tlOiMxODE4MTg7c3Ryb2tlLXdpZHRoOjE7IiB4MT0iNjMuNSIgeDI9IjcxMi41IiB5MT0iMTQwMS4yMzQ0IiB5Mj0iMTQwMS4yMzQ0Ii8+PHRleHQgZmlsbD0iIzAwMDAwMCIgZm9udC1mYW1pbHk9InNhbnMtc2VyaWYiIGZvbnQtc2l6ZT0iMTMiIGZvbnQtd2VpZ2h0PSJib2xkIiBsZW5ndGhBZGp1c3Q9InNwYWNpbmciIHRleHRMZW5ndGg9IjEzIiB4PSI3NS41IiB5PSIxMzk3LjYwOTQiPjMyPC90ZXh0Pjx0ZXh0IGZpbGw9IiMwMDAwMDAiIGZvbnQtZmFtaWx5PSJzYW5zLXNlcmlmIiBmb250LXNpemU9IjEzIiBsZW5ndGhBZGp1c3Q9InNwYWNpbmciIHRleHRMZW5ndGg9IjE5LjUiIHg9IjkyLjUiIHk9IjEzOTcuNjA5NCI+YWNrPC90ZXh0PjwvZz48ZyBjbGFzcz0ibWVzc2FnZSIgZGF0YS1wYXJ0aWNpcGFudC0xPSJ0cmFuc2ZlciIgZGF0YS1wYXJ0aWNpcGFudC0yPSJ0cmFuc2ZlciI+PGxpbmUgc3R5bGU9InN0cm9rZTojMTgxODE4O3N0cm9rZS13aWR0aDoxOyIgeDE9IjcxMy41IiB4Mj0iNzU1LjUiIHkxPSIxNDI5LjE0ODQiIHkyPSIxNDI5LjE0ODQiLz48bGluZSBzdHlsZT0ic3Ryb2tlOiMxODE4MTg7c3Ryb2tlLXdpZHRoOjE7IiB4MT0iNzU1LjUiIHgyPSI3NTUuNSIgeTE9IjE0MjkuMTQ4NCIgeTI9IjE0NDIuMTQ4NCIvPjxsaW5lIHN0eWxlPSJzdHJva2U6IzE4MTgxODtzdHJva2Utd2lkdGg6MTsiIHgxPSI3MTQuNSIgeDI9Ijc1NS41IiB5MT0iMTQ0Mi4xNDg0IiB5Mj0iMTQ0Mi4xNDg0Ii8+PHBvbHlnb24gZmlsbD0iIzE4MTgxOCIgcG9pbnRzPSI3MjQuNSwxNDM4LjE0ODQsNzE0LjUsMTQ0Mi4xNDg0LDcyNC41LDE0NDYuMTQ4NCw3MjAuNSwxNDQyLjE0ODQiIHN0eWxlPSJzdHJva2U6IzE4MTgxODtzdHJva2Utd2lkdGg6MTsiLz48dGV4dCBmaWxsPSIjMDAwMDAwIiBmb250LWZhbWlseT0ic2Fucy1zZXJpZiIgZm9udC1zaXplPSIxMyIgZm9udC13ZWlnaHQ9ImJvbGQiIGxlbmd0aEFkanVzdD0ic3BhY2luZyIgdGV4dExlbmd0aD0iMTMiIHg9IjcyMC41IiB5PSIxNDI1LjUyMzQiPjMzPC90ZXh0Pjx0ZXh0IGZpbGw9IiMwMDAwMDAiIGZvbnQtZmFtaWx5PSJzYW5zLXNlcmlmIiBmb250LXNpemU9IjEzIiBsZW5ndGhBZGp1c3Q9InNwYWNpbmciIHRleHRMZW5ndGg9IjM5IiB4PSI3MzcuNSIgeT0iMTQyNS41MjM0Ij51bmxvY2s8L3RleHQ+PC9nPjwhLS1TUkM9W2JMTERTemZjNEJ4aExzWjJmVXFDZFB4UTNaRnVhRkpacVhvUU5kakhSRGNiMjhIMUoyU3RpOHFqUjQzRXM0MWlORGl1czZLd0RYMjdDU0EyeTZVcWhydkUtR2pUUU9NajlCWkpTWDFlenRkc3ROdFV0S05BUWNlb2N0V2tmbUtYOVFNcnM2OGk5SUtyeVQ3SmR0ekRZZnl6S25WWmlsUnY4cjdBWThiTENWSDJMWEpyWm0tSGx3bEZOSVpsaFNGajFIb3EyT3RNLVYxNE1XcmhLWU9ra1lITV84aXRJdFNhcG52SXFyOW9IVndLOVFMWTdXZ183bVBmUUN5aW9zY0F2eF9DWHdTS0lMak1xbWFsNF9sc3FaUUZBOHF4bl9tQVZkZHM1MWRsSHBoLVNEdlFaZE5vVmJHYVlJSDVrVUZXSHVqZllZb0lDZHBTdVBxaGpiQzRleVFnRkxSa2swWUtBUm9tdURPVGlJcUJqZmk0NWJuQmNFb2E0TmMzVGp2ZkVmcXdVTGR6UGJobHl6OHdERmZXaDY1eThRYmdpZ1o4b3JmNEpDakJpR29sM0YxYXVPQzhkZWR0QnkwT3M5Q2NvdFUzTmprZzE4WXlVcXYwdnQxM0stRG9LZjBLQlZJWmdZbzllUHpZQXh6Zlp2TWlCQkFaOGtINldZMGg2Tm92Ums4QndXSTNReVNvLTZJQjdRNUtmVWJNY1RMdzU5UmZEUHVoVzN2MDJ3aGVkdXl0NzY2ZEd6SjhEZWtpRGVKZzlmbkt3N21Lb0RibFVvYUdaTE5FbU5XajgyVXlDQmt2X3lxRXIyc29LanVVNWcxSzB4dGRBTzB2S184YVN6SVpPd2NpZ2dGbll3LSAtXzVRR2FxbDJWcVpVRGhVUFVKaER4djdTaTd0QW5zRlVFT0RvNU1hbWxFN1QwTmtwemI0blA4SlhNcDF5c09aWXZweDNxVDV5aVctRE9tQTBOa1ZEamp6ak5hbUZxVWQxazRmMU1WcVM5ZE5vS0t5eUgweWUxN2dCclF1cUxQRUs5c2VzZ1NyalhOa3RxcDJUZ3dCV0pOU3VsMjMtIC1wYTR5cjdpTEhUc0JfWWF1VlJ1Wk93SXNVQ3pxQlVXVUZxSHE3Q3dyV1BfTlBYdjRnaUhDNXZFU3RibzJoWjFtaENBb0F4bG1sUjkzNHZuNmRyaTJrX013UkJqU1Zha1Nubk1WcWZmd1huaFpucVZxUUlidFM4WnMweDg4TnFlVHRwUVBYelo0SDROMXJnbWVLMF9jOXh6MlFxUTVLVlVRU3hZeHJ3MlZaZXpRMjRJd09JcWhHQjF3NEdLM1pPRlFDWDJ0dHBfdFRTX0YweDhSUGpiTC14eGVhSFZSNll6dVZycEQtQXhXY3RraTRrXzMweWdlZkJrcGV4dXd1ZVFtel9GN2Y1d0YxZWJEVjc5LXlEZUw5WmpNRUpaRm1IRVotVm05Unp0cGR2WF9GNGJBdnoxUXlGUHRISE1xY2VzOUxCcFlBMWxXaGFFOHNFd2R2ekJ6VXhiOElTQ3J4MWtUcjJqclptMHpIZmtRemxDaU5PSlpkU2VheGQxV1owbW9kMWhPOUZZSVdZMHRNS1ZPUEtzRGY4X1psd1dWMWdFa1dlcm54d1pBeUhSODJEYjdQVFYxMkVsSGdKNS1CbjBzUUkyX3lYcTRyeFJwVmhFSXlGbDNrRGxsWndjOXJxeUFzcjF2bjE2UXMyUXhpNzVpWnF3bjJ0Q2t6TF8wMDAwXS0tPjwvZz48L3N2Zz4=;" vertex="1" parent="1">
            <mxGeometry x="-270" y="-180" width="1358" height="1516" as="geometry" />
          </mxCell>
        </UserObject>
      </root>
    </mxGraphModel>
  </diagram>
</mxfile>
